<svg xmlns="http://www.w3.org/2000/svg" viewBox="0 0 360.04 387.57"><defs><style>.cls-1{opacity:0.4;}.cls-2{fill:#f2f2f2;}.cls-3{fill:#cdcdcd;}.cls-4{fill:#fff;}.cls-5{fill:#e1e1e1;}.cls-6{fill:#ababab;}.cls-7{fill:#5a5a5a;}.cls-10,.cls-8{opacity:0.1;}.cls-9{fill:#0284c7;}.cls-11{opacity:0.05;}.cls-12{opacity:0.3;}.cls-13{fill:#777;}.cls-14,.cls-15{opacity:0.2;}.cls-16{opacity:0.8;}</style></defs><g id="Layer_2" data-name="Layer 2"><g id="Stars"><g className="cls-1"><rect className="cls-2" x="10.58" width="338.87" height="368.87"/><rect className="cls-3" x="26.59" y="18.5" width="306.87" height="301.4"/><rect className="cls-2" x="26.59" y="244.46" width="306.87" height="10.71"/><rect className="cls-2" x="26.59" y="164.45" width="306.87" height="10.71"/><rect className="cls-2" x="26.59" y="84.42" width="306.87" height="10.71"/><rect className="cls-4" x="34.17" y="54.53" width="29.89" height="29.89" rx="3.09"/><rect className="cls-4" x="65.02" y="54.53" width="29.89" height="29.89" rx="3.09"/><rect className="cls-4" x="34.17" y="23.98" width="29.89" height="29.89" rx="3.09"/><rect className="cls-4" x="65.02" y="23.98" width="29.89" height="29.89" rx="3.09"/><rect className="cls-4" x="95.82" y="54.53" width="29.89" height="29.89" rx="3.09"/><rect className="cls-4" x="95.82" y="23.98" width="29.89" height="29.89" rx="3.09"/><rect className="cls-5" x="32.19" y="45.77" width="94.9" height="23.71"/><rect className="cls-4" x="131.85" y="54.53" width="29.89" height="29.89" rx="3.09"/><rect className="cls-4" x="162.7" y="54.53" width="29.89" height="29.89" rx="3.09"/><rect className="cls-4" x="131.85" y="23.98" width="29.89" height="29.89" rx="3.09"/><rect className="cls-4" x="162.7" y="23.98" width="29.89" height="29.89" rx="3.09"/><rect className="cls-4" x="193.5" y="54.53" width="29.89" height="29.89" rx="3.09"/><rect className="cls-4" x="193.5" y="23.98" width="29.89" height="29.89" rx="3.09"/><rect className="cls-2" x="129.86" y="45.77" width="94.9" height="23.71"/><rect className="cls-4" x="229.52" y="54.53" width="29.89" height="29.89" rx="3.09"/><rect className="cls-4" x="260.37" y="54.53" width="29.89" height="29.89" rx="3.09"/><rect className="cls-4" x="229.52" y="23.98" width="29.89" height="29.89" rx="3.09"/><rect className="cls-4" x="260.37" y="23.98" width="29.89" height="29.89" rx="3.09"/><rect className="cls-4" x="291.18" y="54.53" width="29.89" height="29.89" rx="3.09"/><rect className="cls-4" x="291.18" y="23.98" width="29.89" height="29.89" rx="3.09"/><rect className="cls-5" x="227.54" y="45.77" width="94.9" height="23.71"/><path className="cls-5" d="M58,148.28v16.17H32.19V148.28c0-7.38,4-11.87,4-14.19s-3-5.88-3-10.37,5.88-8.25,5.88-11.59v-9.45h12v9.45c0,3.34,5.88,7.09,5.88,11.59s-3,8.08-3,10.37S58,140.9,58,148.28Z"/><rect className="cls-2" x="37.26" y="99.45" width="15.68" height="5.3"/><rect className="cls-4" x="32.19" y="149.27" width="25.82" height="9.4"/><path className="cls-5" d="M86.7,148.28v16.17H60.88V148.28c0-7.38,4-11.87,4-14.19s-3-5.88-3-10.37,5.88-8.25,5.88-11.59v-9.45h12v9.45c0,3.34,5.88,7.09,5.88,11.59s-3,8.08-3,10.37S86.7,140.9,86.7,148.28Z"/><rect className="cls-2" x="65.95" y="99.45" width="15.68" height="5.3"/><rect className="cls-4" x="60.88" y="149.27" width="25.82" height="9.4"/><path className="cls-5" d="M115.39,148.28v16.17H89.57V148.28c0-7.38,4-11.87,4-14.19s-3-5.88-3-10.37,5.88-8.25,5.88-11.59v-9.45h12v9.45c0,3.34,5.88,7.09,5.88,11.59s-3,8.08-3,10.37S115.39,140.9,115.39,148.28Z"/><rect className="cls-2" x="94.64" y="99.45" width="15.68" height="5.3"/><rect className="cls-4" x="89.57" y="149.27" width="25.82" height="9.4"/><path className="cls-5" d="M144.08,148.28v16.17H118.26V148.28c0-7.38,4-11.87,4-14.19s-3-5.88-3-10.37,5.88-8.25,5.88-11.59v-9.45h12v9.45c0,3.34,5.88,7.09,5.88,11.59s-3,8.08-3,10.37S144.08,140.9,144.08,148.28Z"/><rect className="cls-2" x="123.33" y="99.45" width="15.68" height="5.3"/><rect className="cls-4" x="118.26" y="149.27" width="25.82" height="9.4"/><path className="cls-5" d="M172.77,148.28v16.17H147V148.28c0-7.38,4-11.87,4-14.19s-3-5.88-3-10.37,5.88-8.25,5.88-11.59v-9.45h12v9.45c0,3.34,5.88,7.09,5.88,11.59s-3,8.08-3,10.37S172.77,140.9,172.77,148.28Z"/><rect className="cls-2" x="152.02" y="99.45" width="15.68" height="5.3"/><rect className="cls-4" x="146.95" y="149.27" width="25.82" height="9.4"/><path className="cls-4" d="M216.37,116.74v41.2a5.21,5.21,0,0,1-5.21,5.21H187.48a5.21,5.21,0,0,1-5.21-5.21v-41.2a5.2,5.2,0,0,1,5.21-5.19h.16v-2.48H211v2.48h.16A5.2,5.2,0,0,1,216.37,116.74Z"/><rect className="cls-6" x="184.44" y="119.41" width="29.75" height="41.65" rx="4.2"/><rect className="cls-5" x="184.19" y="103.98" width="30.13" height="4.96"/><rect className="cls-2" x="190.48" y="136.11" width="17.69" height="17.85"/><path className="cls-4" d="M48.68,218.06V241.5a3,3,0,0,1-3,3H32.24a3,3,0,0,1-3-3V218.06a3,3,0,0,1,3-2.95h.1V213.7H45.62v1.41h.1A3,3,0,0,1,48.68,218.06Z"/><rect className="cls-2" x="30.52" y="219.58" width="16.93" height="23.69" rx="1.68"/><rect className="cls-6" x="30.37" y="210.8" width="17.14" height="2.82"/><path className="cls-4" d="M48.59,184.43v23.44a3,3,0,0,1-3,3H32.16a3,3,0,0,1-3-3V184.43a3,3,0,0,1,3-3h.09v-1.41H45.54v1.41h.09A3,3,0,0,1,48.59,184.43Z"/><rect className="cls-2" x="30.43" y="185.95" width="16.93" height="23.69" rx="1.68"/><rect className="cls-6" x="30.29" y="177.17" width="17.14" height="2.82"/><path className="cls-4" d="M69.2,218.06V241.5a3,3,0,0,1-3,3H52.76a3,3,0,0,1-3-3V218.06a3,3,0,0,1,3-2.95h.1V213.7H66.14v1.41h.09A3,3,0,0,1,69.2,218.06Z"/><rect className="cls-2" x="51.04" y="219.58" width="16.93" height="23.69" rx="1.68"/><rect className="cls-6" x="50.89" y="210.8" width="17.14" height="2.82"/><path className="cls-4" d="M69.11,184.43v23.44a3,3,0,0,1-3,3H52.68a3,3,0,0,1-3-3V184.43a3,3,0,0,1,3-3h.09v-1.41H66.06v1.41h.09A3,3,0,0,1,69.11,184.43Z"/><rect className="cls-2" x="50.95" y="185.95" width="16.93" height="23.69" rx="1.68"/><rect className="cls-6" x="50.81" y="177.17" width="17.14" height="2.82"/><path className="cls-4" d="M89.72,218.06V241.5a3,3,0,0,1-3,3H73.28a3,3,0,0,1-3-3V218.06a3,3,0,0,1,3-2.95h.09V213.7H86.66v1.41h.09A3,3,0,0,1,89.72,218.06Z"/><rect className="cls-2" x="71.55" y="219.58" width="16.93" height="23.69" rx="1.68"/><rect className="cls-6" x="71.41" y="210.8" width="17.14" height="2.82"/><path className="cls-4" d="M89.63,184.43v23.44a3,3,0,0,1-3,3H73.2a3,3,0,0,1-3-3V184.43a3,3,0,0,1,3-3h.09v-1.41H86.58v1.41h.09A3,3,0,0,1,89.63,184.43Z"/><rect className="cls-2" x="71.47" y="185.95" width="16.93" height="23.69" rx="1.68"/><rect className="cls-6" x="71.32" y="177.17" width="17.14" height="2.82"/><path className="cls-4" d="M110.24,218.06V241.5a3,3,0,0,1-3,3H93.8a3,3,0,0,1-3-3V218.06a3,3,0,0,1,3-2.95h.09V213.7h13.29v1.41h.09A3,3,0,0,1,110.24,218.06Z"/><rect className="cls-2" x="92.07" y="219.58" width="16.93" height="23.69" rx="1.68"/><rect className="cls-6" x="91.93" y="210.8" width="17.14" height="2.82"/><path className="cls-4" d="M110.15,184.43v23.44a3,3,0,0,1-3,3H93.72a3,3,0,0,1-3-3V184.43a3,3,0,0,1,3-3h.09v-1.41H107.1v1.41h.09A3,3,0,0,1,110.15,184.43Z"/><rect className="cls-2" x="91.99" y="185.95" width="16.93" height="23.69" rx="1.68"/><rect className="cls-6" x="91.84" y="177.17" width="17.14" height="2.82"/><path className="cls-4" d="M130.75,218.06V241.5a3,3,0,0,1-3,3H114.32a3,3,0,0,1-3-3V218.06a3,3,0,0,1,3-2.95h.09V213.7H127.7v1.41h.09A3,3,0,0,1,130.75,218.06Z"/><rect className="cls-2" x="112.59" y="219.58" width="16.93" height="23.69" rx="1.68"/><rect className="cls-6" x="112.45" y="210.8" width="17.14" height="2.82"/><path className="cls-4" d="M130.67,184.43v23.44a3,3,0,0,1-3,3H114.24a3,3,0,0,1-3-3V184.43a3,3,0,0,1,3-3h.09v-1.41h13.28v1.41h.1A3,3,0,0,1,130.67,184.43Z"/><rect className="cls-2" x="112.51" y="185.95" width="16.93" height="23.69" rx="1.68"/><rect className="cls-6" x="112.36" y="177.17" width="17.14" height="2.82"/><path className="cls-4" d="M151.27,218.06V241.5a3,3,0,0,1-3,3H134.84a3,3,0,0,1-3-3V218.06a3,3,0,0,1,3-2.95h.09V213.7h13.29v1.41h.09A3,3,0,0,1,151.27,218.06Z"/><rect className="cls-2" x="133.11" y="219.58" width="16.93" height="23.69" rx="1.68"/><rect className="cls-6" x="132.97" y="210.8" width="17.14" height="2.82"/><path className="cls-4" d="M151.19,184.43v23.44a3,3,0,0,1-3,3H134.75a3,3,0,0,1-3-3V184.43a3,3,0,0,1,3-3h.1v-1.41h13.28v1.41h.1A3,3,0,0,1,151.19,184.43Z"/><rect className="cls-2" x="133.03" y="185.95" width="16.93" height="23.69" rx="1.68"/><rect className="cls-6" x="132.88" y="177.17" width="17.14" height="2.82"/><path className="cls-4" d="M171.79,218.06V241.5a3,3,0,0,1-3,3H155.36a3,3,0,0,1-3-3V218.06a3,3,0,0,1,3-2.95h.09V213.7h13.29v1.41h.09A3,3,0,0,1,171.79,218.06Z"/><rect className="cls-2" x="153.63" y="219.58" width="16.93" height="23.69" rx="1.68"/><rect className="cls-6" x="153.49" y="210.8" width="17.14" height="2.82"/><path className="cls-4" d="M171.71,184.43v23.44a3,3,0,0,1-3,3H155.27a3,3,0,0,1-3-3V184.43a3,3,0,0,1,3-3h.1v-1.41h13.28v1.41h.09A3,3,0,0,1,171.71,184.43Z"/><rect className="cls-2" x="153.55" y="185.95" width="16.93" height="23.69" rx="1.68"/><rect className="cls-6" x="153.4" y="177.17" width="17.14" height="2.82"/><path className="cls-4" d="M254.12,116.74v41.2a5.21,5.21,0,0,1-5.21,5.21H225.23a5.21,5.21,0,0,1-5.21-5.21v-41.2a5.2,5.2,0,0,1,5.21-5.19h.16v-2.48h23.36v2.48h.16A5.2,5.2,0,0,1,254.12,116.74Z"/><rect className="cls-6" x="222.19" y="119.41" width="29.75" height="41.65" rx="4.2"/><rect className="cls-5" x="221.94" y="103.98" width="30.13" height="4.96"/><rect className="cls-2" x="228.23" y="136.11" width="17.69" height="17.85"/><path className="cls-4" d="M291.87,116.74v41.2a5.21,5.21,0,0,1-5.21,5.21H263a5.21,5.21,0,0,1-5.21-5.21v-41.2a5.2,5.2,0,0,1,5.21-5.19h.16v-2.48H286.5v2.48h.16A5.2,5.2,0,0,1,291.87,116.74Z"/><rect className="cls-6" x="259.94" y="119.41" width="29.75" height="41.65" rx="4.2"/><rect className="cls-5" x="259.69" y="103.98" width="30.13" height="4.96"/><rect className="cls-2" x="265.98" y="136.11" width="17.69" height="17.85"/><path className="cls-4" d="M329.62,116.74v41.2a5.21,5.21,0,0,1-5.21,5.21H300.73a5.21,5.21,0,0,1-5.21-5.21v-41.2a5.21,5.21,0,0,1,5.21-5.19h.16v-2.48h23.36v2.48h.16A5.2,5.2,0,0,1,329.62,116.74Z"/><rect className="cls-6" x="297.69" y="119.41" width="29.75" height="41.65" rx="4.2"/><rect className="cls-5" x="297.44" y="103.98" width="30.13" height="4.96"/><rect className="cls-2" x="303.73" y="136.11" width="17.69" height="17.85"/><rect className="cls-5" x="175.44" y="178.53" width="46.75" height="65.83"/><rect className="cls-6" x="182.1" y="197.85" width="33.43" height="2.89"/><rect className="cls-6" x="185.52" y="203.34" width="26.58" height="2.89"/><rect className="cls-2" x="185.52" y="187.77" width="26.58" height="2.89"/><ellipse className="cls-4" cx="198.82" cy="224.62" rx="18.16" ry="10.14"/><rect className="cls-5" x="227.09" y="178.53" width="46.75" height="65.83"/><rect className="cls-6" x="233.75" y="197.85" width="33.43" height="2.89"/><rect className="cls-6" x="237.18" y="203.34" width="26.58" height="2.89"/><rect className="cls-2" x="237.18" y="187.77" width="26.58" height="2.89"/><ellipse className="cls-4" cx="250.47" cy="224.62" rx="18.16" ry="10.14"/><rect className="cls-5" x="278.74" y="178.53" width="46.75" height="65.83"/><rect className="cls-6" x="285.4" y="197.85" width="33.43" height="2.89"/><rect className="cls-6" x="288.83" y="203.34" width="26.58" height="2.89"/><rect className="cls-2" x="288.83" y="187.77" width="26.58" height="2.89"/><ellipse className="cls-4" cx="302.12" cy="224.62" rx="18.16" ry="10.14"/><rect className="cls-2" x="34.17" y="261.46" width="60.47" height="58.43"/><rect className="cls-4" x="43" y="292.09" width="42.8" height="22.07"/><rect className="cls-5" x="31.86" y="261.46" width="65.08" height="9.11"/><rect className="cls-2" x="102.79" y="261.46" width="60.47" height="58.43"/><rect className="cls-4" x="111.63" y="292.09" width="42.8" height="22.07"/><rect className="cls-5" x="100.48" y="261.46" width="65.08" height="9.11"/><rect className="cls-2" x="171.14" y="275.17" width="34.81" height="44.72"/><rect className="cls-4" x="175.51" y="287.78" width="25.57" height="9.53"/><rect className="cls-4" x="175.51" y="301.85" width="25.57" height="14.48"/><rect className="cls-5" x="169.11" y="275.17" width="38.88" height="6.97"/><rect className="cls-2" x="211.95" y="275.17" width="34.81" height="44.72"/><rect className="cls-4" x="216.32" y="287.78" width="25.57" height="9.53"/><rect className="cls-4" x="216.32" y="301.85" width="25.57" height="14.48"/><rect className="cls-5" x="209.91" y="275.17" width="38.88" height="6.97"/><rect className="cls-2" x="252.75" y="275.17" width="34.81" height="44.72"/><rect className="cls-4" x="257.13" y="287.78" width="25.57" height="9.53"/><rect className="cls-4" x="257.13" y="301.85" width="25.57" height="14.48"/><rect className="cls-5" x="250.72" y="275.17" width="38.88" height="6.97"/><rect className="cls-2" x="293.56" y="275.17" width="34.81" height="44.72"/><rect className="cls-4" x="297.93" y="287.78" width="25.57" height="9.53"/><rect className="cls-4" x="297.93" y="301.85" width="25.57" height="14.48"/><rect className="cls-5" x="291.53" y="275.17" width="38.88" height="6.97"/><rect className="cls-3" x="26.59" y="368.87" width="306.87" height="18.2"/></g><polygon className="cls-7" points="0 387.08 45.01 386.83 90.01 386.75 180.02 386.58 270.03 386.74 315.04 386.83 360.04 387.08 315.04 387.32 270.03 387.41 180.02 387.57 90.01 387.41 45.01 387.32 0 387.08"/><path className="cls-6" d="M228.42,285.65h-21a13.44,13.44,0,0,1-13.15-10.45L157.16,123.53,135,91.47l3.29-2.27,22.61,32.67,37.28,152.41a9.44,9.44,0,0,0,9.25,7.37h21Z"/><path className="cls-6" d="M213.74,285.65h-21a13.43,13.43,0,0,1-13.14-10.45L142.46,123.45,124,91.33l3.47-2L146.21,122l37.25,152.33a9.46,9.46,0,0,0,9.25,7.37h21Z"/><rect className="cls-6" x="169.86" y="165.91" width="4" height="118.09" transform="translate(-23.47 20.05) rotate(-6.25)"/><path className="cls-6" d="M350.58,185.35h-.2L169.45,167.63,60.08,167a2.08,2.08,0,1,1,0-4.15h0l109.47.59h.19l181,17.72a2.08,2.08,0,0,1-.2,4.14Z"/><path className="cls-6" d="M352,181.32h-.21L169.45,163.46l-110.81-.59a2.08,2.08,0,1,1,0-4.15l110.91.59h.19l182.46,17.86a2.08,2.08,0,0,1-.2,4.14Z"/><path className="cls-8" d="M354.08,179.45a2.08,2.08,0,0,1-2.06,1.87h-.21L169.45,163.46l-110.81-.59a2.07,2.07,0,0,1-2.07-2.08,1.9,1.9,0,0,1,.15-.75,2.1,2.1,0,0,0,1.92,1.3l110.81.59,182.36,17.85H352a2.07,2.07,0,0,0,1.91-1.31A2,2,0,0,1,354.08,179.45Z"/><path className="cls-4" d="M297.69,172.86a295.49,295.49,0,0,1,34.62,3.39,297.65,297.65,0,0,1-34.62-3.39Z"/><path className="cls-4" d="M84.73,160.33c21.21-.18,63.72-.41,84.91-.44,39.11,3.7,85.7,8.39,124.76,12.65-39.15-3.4-85.76-7.82-124.85-11.77-20.87,0-63.77-.27-84.82-.44Z"/><path className="cls-6" d="M179.72,285.65h-2.94c-7,0-12.89-4.5-14.09-10.71L144.46,164.15l3.94-.65,18.22,110.74c.83,4.27,5.11,7.41,10.16,7.41h2.94Z"/><path className="cls-6" d="M160.27,285.65h-2.93c-7,0-12.89-4.5-14.1-10.71L125,164.15l4-.65,18.22,110.74c.83,4.27,5.11,7.41,10.16,7.41h2.93Z"/><path className="cls-6" d="M140.83,285.65H137.9c-7,0-12.9-4.5-14.1-10.71L104.57,164.17l3.94-.69,19.22,110.74c.84,4.29,5.11,7.43,10.17,7.43h2.93Z"/><path className="cls-6" d="M121.38,285.65h-2.93c-7,0-12.89-4.5-14.1-10.71L85.13,164.17l3.94-.69,19.22,110.74c.83,4.29,5.11,7.43,10.16,7.43h2.93Z"/><path className="cls-6" d="M100.94,285.65H98c-7,0-12.9-4.5-14.1-10.71L63.69,164.18l3.93-.71L87.84,274.2c.84,4.31,5.12,7.45,10.17,7.45h2.93Z"/><rect className="cls-6" x="103.95" y="140.55" width="4" height="66.58"/><rect className="cls-6" x="119.58" y="140.55" width="4" height="66.58"/><rect className="cls-6" x="135.21" y="140.55" width="4" height="66.58"/><rect className="cls-6" x="73.56" y="205.13" width="96.04" height="4"/><rect className="cls-6" x="92.27" y="192.09" width="58.23" height="4"/><rect className="cls-6" x="79.98" y="234.48" width="94.15" height="4"/><path className="cls-6" d="M152.5,206.72h-4V149.2a6.66,6.66,0,0,0-6.65-6.65H100.93a6.66,6.66,0,0,0-6.66,6.65v57.52h-4V149.2a10.67,10.67,0,0,1,10.66-10.65h40.92A10.67,10.67,0,0,1,152.5,149.2Z"/><polygon className="cls-9" points="158.63 238.65 95.19 238.65 89.06 204.4 104.88 204.4 105.71 209.04 138.74 209.04 137.91 204.4 152.5 204.4 158.63 238.65"/><g className="cls-10"><polygon points="92.2 204.4 98.33 238.65 95.19 238.65 89.06 204.4 92.2 204.4"/><polygon points="141.88 209.04 138.74 209.04 137.91 204.4 141.05 204.4 141.88 209.04"/></g><g className="cls-11"><polygon points="136 209.04 106.39 238.65 98.33 238.65 97.22 232.42 120.6 209.04 136 209.04"/><polygon points="156.8 228.43 146.58 238.65 131.18 238.65 154.46 215.37 156.8 228.43"/><polygon points="105.69 208.95 94.94 219.7 93.92 214.01 103.54 204.4 104.88 204.4 105.69 208.95"/><polygon points="153.2 208.29 122.84 238.65 121 238.65 152.92 206.73 153.2 208.29"/><polygon points="157.34 231.44 150.13 238.65 148.29 238.65 157.06 229.88 157.34 231.44"/><polygon points="110.97 209.04 95.75 224.26 95.47 222.7 109.13 209.04 110.97 209.04"/></g><path className="cls-6" d="M180.86,285.65h-2.49v-4h2.49a8.44,8.44,0,0,0,8.32-6.9l3.88-105.66,4,.15-3.89,105.93,0,.14A12.45,12.45,0,0,1,180.86,285.65Z"/><path className="cls-6" d="M203.33,285.65h-2.5v-4h2.5a8.45,8.45,0,0,0,8.33-6.95l9.61-105.32,4,.36-9.64,105.57A12.43,12.43,0,0,1,203.33,285.65Z"/><path className="cls-6" d="M225.79,285.65H223.3v-4h2.49a8.45,8.45,0,0,0,8.34-7l12.45-102.33,4,.48L238.08,275.31A12.44,12.44,0,0,1,225.79,285.65Z"/><path className="cls-6" d="M248.26,285.65h-2.49v-4h2.49a8.46,8.46,0,0,0,8.35-7l15.7-99.47,3.95.63-15.71,99.5A12.45,12.45,0,0,1,248.26,285.65Z"/><path className="cls-6" d="M270.72,285.65h-2.49v-4h2.49a8.44,8.44,0,0,0,8.35-7l16.74-97.06,3.94.68L283,275.31A12.44,12.44,0,0,1,270.72,285.65Z"/><path className="cls-6" d="M292.19,285.65H289.7v-4h2.49a8.46,8.46,0,0,0,8.35-7l19.89-94.05,3.92.83-19.89,94A12.42,12.42,0,0,1,292.19,285.65Z"/><path className="cls-6" d="M307.83,285.65h-2.49v-4h2.49a8.46,8.46,0,0,0,8.35-7l19.9-94.05,3.91.83-19.88,94A12.44,12.44,0,0,1,307.83,285.65Z"/><polygon className="cls-6" points="338.03 237.75 275.67 237.75 56.95 224.42 57.19 220.43 275.86 233.75 338.03 233.75 338.03 237.75"/><path className="cls-9" d="M151.83,100.79l-20.61,11.88h-5.76L123.3,95.45a11.91,11.91,0,0,1,2-14.5V77.62h6.24a11.89,11.89,0,0,1,10.32,6Z"/><g className="cls-10"><path d="M151.83,100.79l-20.61,11.88h-5.76L123.3,95.45a11.91,11.91,0,0,1,2-14.5V77.62h6.24a11.89,11.89,0,0,1,10.32,6Z"/></g><path className="cls-9" d="M146.08,100.79l-20.62,11.88-9.92-17.22a11.9,11.9,0,0,1,4.37-16.25h0a11.89,11.89,0,0,1,16.24,4.37Z"/><path className="cls-8" d="M126.34,88.16a2.11,2.11,0,1,1-2.1-2.11A2.1,2.1,0,0,1,126.34,88.16Z"/><path className="cls-4" d="M124.39,79c5.19-1.57,10,2.69,12.21,7.07,1.74,3.13,3.58,6.66,5.2,9.89.53,1.13,1.09,2.23,1.59,3.38-.7-1-1.35-2.1-2-3.14L139.44,93c-3.64-5.76-6.67-15-15-14Z"/><path className="cls-6" d="M169.87,374.5h0a8.59,8.59,0,0,1-8.58-8.12l-1.63-26h20.42l-1.63,26A8.58,8.58,0,0,1,169.87,374.5Z"/><path className="cls-12" d="M169.87,374.5h0a8.59,8.59,0,0,1-8.58-8.12l-1.63-26h20.42l-1.63,26A8.58,8.58,0,0,1,169.87,374.5Z"/><path className="cls-5" d="M166.27,369.59c-3.94-2.95-1.22-9.44,3.6-9.09a4.79,4.79,0,0,1,3.61,1.88,5.13,5.13,0,0,0-7.21,7.21Z"/><path className="cls-8" d="M173.48,362.38c3.93,2.95,1.21,9.45-3.61,9.1a4.78,4.78,0,0,1-3.6-1.89,5.13,5.13,0,0,0,7.21-7.21Z"/><path className="cls-6" d="M300.32,374.5h0a8.57,8.57,0,0,1-8.57-8.12l-1.64-26h20.43l-1.64,26A8.58,8.58,0,0,1,300.32,374.5Z"/><path className="cls-12" d="M300.32,374.5h0a8.57,8.57,0,0,1-8.57-8.12l-1.64-26h20.43l-1.64,26A8.58,8.58,0,0,1,300.32,374.5Z"/><path className="cls-5" d="M296.72,369.59c-3.93-2.95-1.21-9.44,3.6-9.09a4.78,4.78,0,0,1,3.61,1.88,5.13,5.13,0,0,0-7.21,7.21Z"/><path className="cls-8" d="M303.93,362.38c3.93,2.95,1.21,9.45-3.61,9.1a4.78,4.78,0,0,1-3.6-1.89,5.13,5.13,0,0,0,7.21-7.21Z"/><path className="cls-6" d="M115.94,374.5h0a8.58,8.58,0,0,1-8.58-8.12l-1.63-24h20.42l-1.63,24A8.59,8.59,0,0,1,115.94,374.5Z"/><path className="cls-8" d="M115.94,374.5h0a8.58,8.58,0,0,1-8.58-8.12l-1.63-24h20.42l-1.63,24A8.59,8.59,0,0,1,115.94,374.5Z"/><path className="cls-5" d="M112.33,369.59c-3.93-2.95-1.21-9.44,3.61-9.09a4.77,4.77,0,0,1,3.6,1.88,5.13,5.13,0,0,0-7.21,7.21Z"/><path className="cls-8" d="M119.54,362.38c3.94,2.95,1.22,9.45-3.6,9.1a4.8,4.8,0,0,1-3.61-1.89,5.13,5.13,0,0,0,7.21-7.21Z"/><path className="cls-3" d="M102.26,285.65h-21A13.44,13.44,0,0,1,68.09,275.2L31,123.45,12.5,91.33l3.47-2L34.73,122,72,274.28a9.45,9.45,0,0,0,9.25,7.37h21Z"/><path className="cls-3" d="M271.74,285.65H104.36a18.4,18.4,0,0,1-17.73-13.57L47,125.32,24.11,91.45l3.31-2.24,23.24,34.42,11.85,43.83,221.68,17.7ZM63.62,171.56,90.49,271a14.39,14.39,0,0,0,13.87,10.61H268.21l11.5-92.83Z"/><path className="cls-3" d="M323.45,285.65H267.71L280.18,185h71.5l-19.37,92.94A9,9,0,0,1,323.45,285.65Zm-51.21-4h51.21a4.94,4.94,0,0,0,4.9-4.31l0-.16L346.76,189H283.71Z"/><path className="cls-3" d="M125.19,285.65H122A12.45,12.45,0,0,1,110,276.24L83.35,171l3.88-1,26.6,105.25a8.46,8.46,0,0,0,8.21,6.39h3.15Z"/><path className="cls-3" d="M153.86,285.65H150.7a12.46,12.46,0,0,1-12.09-9.41L112,171l3.88-1,26.6,105.25a8.46,8.46,0,0,0,8.21,6.39h3.16Z"/><path className="cls-3" d="M182.52,285.65h-3.16a12.46,12.46,0,0,1-12.09-9.41L141.69,175l3.88-1,25.58,101.23a8.46,8.46,0,0,0,8.21,6.39h3.16Z"/><path className="cls-3" d="M211.18,285.65h-3A12.42,12.42,0,0,1,196,276l-22.57-96.24,3.89-.92,22.58,96.24a8.43,8.43,0,0,0,8.24,6.54h3Z"/><path className="cls-3" d="M239.84,285.65H237a12.53,12.53,0,0,1-12.2-9.87L204.72,181.4l3.91-.84,20.1,94.38a8.5,8.5,0,0,0,8.28,6.71h2.83Z"/><path className="cls-3" d="M268.5,285.65H266a12.45,12.45,0,0,1-12.29-10.34l-15.85-91.62,3.94-.68,15.85,91.61a8.46,8.46,0,0,0,8.35,7h2.49Z"/><path className="cls-3" d="M272.35,285.65H270v-4h2.37a8,8,0,0,0,7.86-6.61l15.1-87.28,3.94.68-15.1,87.28A12,12,0,0,1,272.35,285.65Z"/><path className="cls-3" d="M286,285.65h-2.37v-4H286a8,8,0,0,0,7.86-6.61l16.1-87.3,3.94.73-16.1,87.27A12,12,0,0,1,286,285.65Z"/><path className="cls-3" d="M299.65,285.65h-2.37v-4h2.37a8,8,0,0,0,7.86-6.61l17.11-87.32,3.93.77-17.11,87.27A11.93,11.93,0,0,1,299.65,285.65Z"/><path className="cls-3" d="M313.3,285.65h-2.37v-4h2.37a8,8,0,0,0,7.86-6.61l18.12-87.34,3.91.81-18.1,87.27A11.93,11.93,0,0,1,313.3,285.65Z"/><path className="cls-6" d="M311.93,342.4H284.79c-5.17,0-9.22-5.26-9.22-12v-7.7a14.71,14.71,0,0,1,1.53-6.64L291.81,287c1.7-3.35,4.57-5.35,7.69-5.35h13.19v4H299.5c-1.58,0-3.12,1.18-4.12,3.16l-14.72,29.08a10.92,10.92,0,0,0-1.09,4.83v7.7c0,4.33,2.39,8,5.22,8h27.14Z"/><path className="cls-3" d="M323,342.4H92.62a12,12,0,0,1-12-12v-7.7a11.9,11.9,0,0,1,2.17-6.88l20.37-29.08a12,12,0,0,1,9.82-5.11h18.25v4H113a8,8,0,0,0-6.55,3.41L86.08,318.13a8,8,0,0,0-1.44,4.59v7.7a8,8,0,0,0,8,8H323a2,2,0,0,1,2,2h0A2,2,0,0,1,323,342.4Z"/><path className="cls-4" d="M110,339.47c22.08-.67,44.31-.67,66.4,0-22.09.67-44.32.67-66.4,0Z"/><path className="cls-4" d="M104.57,287a258.66,258.66,0,0,1-18.84,26.6A258.66,258.66,0,0,1,104.57,287Z"/><path className="cls-3" d="M256.42,342.4H192.08a12,12,0,0,1-12-12v-7.7a11.9,11.9,0,0,1,2.17-6.88l20.38-29.08a12,12,0,0,1,9.81-5.11h18.26v4H212.45a8,8,0,0,0-6.54,3.41l-20.37,29.07a7.94,7.94,0,0,0-1.45,4.59v7.7a8,8,0,0,0,8,8h64.34Z"/><ellipse className="cls-7" cx="108.8" cy="366.74" rx="16.3" ry="20.01"/><path className="cls-7" d="M134.29,366.74c0,11.05-7.78,20-17.37,20h-8.8v-40h8.8C126.51,346.73,134.29,355.69,134.29,366.74Z"/><path className="cls-13" d="M109.79,347.89c10.19-.56,15.32,10,15.58,18.85.3,6.72-2.79,14.13-9,17.39a12.39,12.39,0,0,1-6.59,1.45v-.1A14.89,14.89,0,0,0,120.7,379c5.09-7,5.85-17.73.1-24.62A17.7,17.7,0,0,0,116,350a14.13,14.13,0,0,0-6.21-2v-.1Z"/><path className="cls-6" d="M108.54,374.5h0a8.59,8.59,0,0,1-8.58-8.12l-1.63-24h20.42l-1.63,24A8.59,8.59,0,0,1,108.54,374.5Z"/><path className="cls-5" d="M104.93,369.59c-3.93-2.95-1.21-9.44,3.61-9.09a4.79,4.79,0,0,1,3.61,1.88,5.13,5.13,0,0,0-7.22,7.21Z"/><path className="cls-8" d="M112.15,362.38c3.93,2.95,1.21,9.45-3.61,9.1a4.82,4.82,0,0,1-3.61-1.89,5.13,5.13,0,0,0,7.22-7.21Z"/><path className="cls-6" d="M225.85,374.5h0a8.58,8.58,0,0,1-8.58-8.12l-1.64-24h20.43l-1.64,24A8.57,8.57,0,0,1,225.85,374.5Z"/><path className="cls-8" d="M225.85,374.5h0a8.58,8.58,0,0,1-8.58-8.12l-1.64-24h20.43l-1.64,24A8.57,8.57,0,0,1,225.85,374.5Z"/><path className="cls-5" d="M222.24,369.59c-3.93-2.95-1.21-9.44,3.61-9.09a4.77,4.77,0,0,1,3.6,1.88,5.13,5.13,0,0,0-7.21,7.21Z"/><path className="cls-8" d="M229.45,362.38c3.93,2.95,1.21,9.45-3.6,9.1a4.79,4.79,0,0,1-3.61-1.89,5.13,5.13,0,0,0,7.21-7.21Z"/><ellipse className="cls-7" cx="218.71" cy="366.74" rx="16.3" ry="20.01"/><path className="cls-7" d="M244.2,366.74c0,11.05-7.78,20-17.37,20H218v-40h8.81C236.42,346.73,244.2,355.69,244.2,366.74Z"/><path className="cls-13" d="M219.69,347.89c10.19-.56,15.32,10,15.59,18.85.29,6.72-2.79,14.13-9,17.39a12.4,12.4,0,0,1-6.6,1.45v-.1A14.89,14.89,0,0,0,230.61,379c5.09-7,5.85-17.73.09-24.62a17.8,17.8,0,0,0-4.79-4.37,14.21,14.21,0,0,0-6.22-2v-.1Z"/><path className="cls-6" d="M218.45,374.5h0a8.58,8.58,0,0,1-8.58-8.12l-1.63-24h20.42l-1.64,24A8.57,8.57,0,0,1,218.45,374.5Z"/><path className="cls-5" d="M214.84,369.59c-3.93-2.95-1.21-9.44,3.61-9.09a4.77,4.77,0,0,1,3.6,1.88,5.13,5.13,0,0,0-7.21,7.21Z"/><path className="cls-8" d="M222.05,362.38c3.93,2.95,1.21,9.45-3.6,9.1a4.79,4.79,0,0,1-3.61-1.89,5.13,5.13,0,0,0,7.21-7.21Z"/><ellipse className="cls-7" cx="293.18" cy="366.74" rx="16.3" ry="20.01"/><ellipse className="cls-14" cx="293.18" cy="366.74" rx="16.3" ry="20.01"/><path className="cls-7" d="M318.68,366.74c0,11.05-7.78,20-17.38,20h-8.8v-40h8.8C310.9,346.73,318.68,355.69,318.68,366.74Z"/><path className="cls-14" d="M318.68,366.74c0,11.05-7.78,20-17.38,20h-8.8v-40h8.8C310.9,346.73,318.68,355.69,318.68,366.74Z"/><path className="cls-13" d="M294.17,347.89c10.19-.56,15.32,10,15.59,18.85.29,6.72-2.79,14.13-9,17.39a12.42,12.42,0,0,1-6.6,1.45v-.1A14.91,14.91,0,0,0,305.09,379c5.09-7,5.85-17.73.09-24.62a17.8,17.8,0,0,0-4.79-4.37,14.21,14.21,0,0,0-6.22-2v-.1Z"/><path className="cls-6" d="M292.93,374.5h0a8.58,8.58,0,0,1-8.58-8.12l-1.64-24h20.43l-1.64,24A8.57,8.57,0,0,1,292.93,374.5Z"/><path className="cls-8" d="M292.93,374.5h0a8.58,8.58,0,0,1-8.58-8.12l-1.64-24h20.43l-1.64,24A8.57,8.57,0,0,1,292.93,374.5Z"/><path className="cls-5" d="M290,368.94c-3.36-2.37-1.05-7.86,3-7.52a3.82,3.82,0,0,1,2.95,1.61,4.22,4.22,0,0,0-5.91,5.91Z"/><path className="cls-8" d="M295.88,363c3.36,2.38,1.05,7.87-2.95,7.53a3.87,3.87,0,0,1-3-1.62,4.22,4.22,0,0,0,5.91-5.91Z"/><path className="cls-8" d="M294.94,365.88c0,3.41-3.73,2.88-4.26,0a2.16,2.16,0,1,1,4.26,0Zm-.1,0c-.17-1.88-3.27-1.94-3.61,0a1.34,1.34,0,0,0,.42,1.27,1.51,1.51,0,0,0,1.28.28c.8-.14,1.91-.53,1.91-1.55Z"/><ellipse className="cls-7" cx="162.73" cy="366.74" rx="16.3" ry="20.01"/><ellipse className="cls-14" cx="162.73" cy="366.74" rx="16.3" ry="20.01"/><path className="cls-7" d="M188.22,366.74c0,11.05-7.78,20-17.37,20h-8.8v-40h8.8C180.44,346.73,188.22,355.69,188.22,366.74Z"/><path className="cls-14" d="M188.22,366.74c0,11.05-7.78,20-17.37,20h-8.8v-40h8.8C180.44,346.73,188.22,355.69,188.22,366.74Z"/><path className="cls-13" d="M163.72,347.89c10.19-.56,15.32,10,15.59,18.85.29,6.72-2.8,14.13-9,17.39a12.42,12.42,0,0,1-6.6,1.45v-.1A14.93,14.93,0,0,0,174.64,379c5.09-7,5.84-17.73.09-24.62a17.7,17.7,0,0,0-4.8-4.37,14.13,14.13,0,0,0-6.21-2v-.1Z"/><path className="cls-6" d="M162.47,374.5h0a8.57,8.57,0,0,1-8.57-8.12l-1.64-24h20.42l-1.63,24A8.58,8.58,0,0,1,162.47,374.5Z"/><path className="cls-8" d="M162.47,374.5h0a8.57,8.57,0,0,1-8.57-8.12l-1.64-24h20.42l-1.63,24A8.58,8.58,0,0,1,162.47,374.5Z"/><path className="cls-5" d="M159.52,368.94c-3.36-2.37-1.06-7.86,2.95-7.52a3.84,3.84,0,0,1,3,1.61,4.22,4.22,0,0,0-5.91,5.91Z"/><path className="cls-8" d="M165.43,363c3.36,2.38,1,7.87-3,7.53a3.86,3.86,0,0,1-2.95-1.62,4.22,4.22,0,0,0,5.91-5.91Z"/><path className="cls-8" d="M164.49,365.88c0,3.41-3.73,2.88-4.26,0a2.16,2.16,0,1,1,4.26,0Zm-.1,0c-.18-1.88-3.27-1.94-3.61,0a1.34,1.34,0,0,0,.42,1.27,1.49,1.49,0,0,0,1.27.28c.81-.14,1.92-.53,1.92-1.55Z"/><polygon className="cls-3" points="338.03 242.66 275.67 242.66 56.95 229.33 57.19 225.33 275.86 238.66 338.03 238.66 338.03 242.66"/><path className="cls-4" d="M316.64,240a80.5,80.5,0,0,1,18.16,0,79.92,79.92,0,0,1-18.16,0Z"/><path className="cls-4" d="M63.62,226.61C126.37,230,202.5,234.77,265.34,239c2.48.14,9.18.68,11.64.74,2.13,0,32.19.24,35,.26-2.76,0-33.11.27-35,.27-2.46,0-9-.52-11.64-.64-62.91-3.7-139-8.5-201.7-13Z"/><path className="cls-3" d="M354.09,185.35h-72.3L60.68,167.69a2,2,0,1,1,.32-4l221,17.65h72.06a2,2,0,0,1,0,4Z"/><path className="cls-8" d="M356.09,183.35a2,2,0,0,1-2,2h-72.3L60.68,167.69a2,2,0,0,1-1.84-2.16,2,2,0,0,1,.18-.68,2,2,0,0,0,1.55,1l221.11,17.66H354a2,2,0,0,0,1.81-1.16A2,2,0,0,1,356.09,183.35Z"/><path className="cls-4" d="M224.51,177.47a127.09,127.09,0,0,1,22.71,1.85,126.17,126.17,0,0,1-22.71-1.85Z"/><path className="cls-4" d="M62.41,164.27c50.33,3.45,106.74,8,157,12.78-50.33-3.43-106.74-8-157-12.78Z"/><polygon className="cls-9" points="285.87 224.4 338.35 224.4 347.41 180.98 293.38 180.98 285.87 224.4"/><polygon className="cls-8" points="296.05 180.99 288.53 224.41 285.87 224.41 293.39 180.99 296.05 180.99"/><g className="cls-11"><polygon points="345 180.98 301.58 224.4 288.53 224.4 289.02 221.56 329.6 180.98 345 180.98"/><polygon points="312.66 180.98 292.57 201.07 293.98 192.95 305.96 180.98 312.66 180.98"/><polygon points="340.85 212.41 339.08 220.88 339.08 220.89 335.57 224.4 328.86 224.4 340.85 212.41"/><polygon points="345.56 189.84 345.08 192.16 312.84 224.4 311 224.4 345.56 189.84"/><polygon points="317.1 180.98 291.64 206.44 292.03 204.21 315.26 180.98 317.1 180.98"/></g><path className="cls-9" d="M131.34,89c0,3.89-2.31,7-5.17,7h-4.32V82h4.32C129,82,131.34,85.12,131.34,89Z"/><g className="cls-15"><path className="cls-4" d="M131.34,89c0,3.89-2.31,7-5.17,7h-4.32V82h4.32C129,82,131.34,85.12,131.34,89Z"/></g><path className="cls-9" d="M127,89c0,3.89-2.32,7-5.17,7s-5.17-3.16-5.17-7,2.31-7,5.17-7S127,85.11,127,89Z"/><path className="cls-8" d="M127,89c0,3.89-2.32,7-5.17,7s-5.17-3.16-5.17-7,2.31-7,5.17-7S127,85.11,127,89Z"/><path className="cls-9" d="M119.85,93H27.09a4,4,0,0,1-4-4h0a4,4,0,0,1,4-4h92.76a4,4,0,0,1,4,4h0A4,4,0,0,1,119.85,93Z"/><path className="cls-8" d="M123.84,89a4,4,0,0,1-4,4H27.09a4,4,0,0,1-2.94-6.68,3.08,3.08,0,0,0,0,.53,4,4,0,0,0,4,4h88.69a4,4,0,0,0,4-4,3.89,3.89,0,0,0-.43-1.8A4,4,0,0,1,123.84,89Z"/><path className="cls-4" d="M31,86.79c26.5-.67,54.5-.65,81,0-26.55.66-54.53.68-81,0Z"/><path className="cls-9" d="M41.83,103,21.22,114.85H15.46L13.3,97.63a11.91,11.91,0,0,1,2-14.5V79.8h6.24a11.89,11.89,0,0,1,10.32,6Z"/><g className="cls-10"><path d="M41.83,103,21.22,114.85H15.46L13.3,97.63a11.91,11.91,0,0,1,2-14.5V79.8h6.24a11.89,11.89,0,0,1,10.32,6Z"/></g><path className="cls-9" d="M36.07,103,15.46,114.84,5.54,97.62A11.89,11.89,0,0,1,9.91,81.38h0a11.88,11.88,0,0,1,16.24,4.37Z"/><path className="cls-8" d="M16.34,90.33a2.11,2.11,0,1,1-2.1-2.1A2.1,2.1,0,0,1,16.34,90.33Z"/><path className="cls-4" d="M14.6,80.59c5.2-1.57,10,2.69,12.21,7.07,1.75,3.13,3.59,6.66,5.2,9.89.54,1.12,1.1,2.23,1.6,3.38-.7-1-1.35-2.1-2-3.14L29.65,94.6c-3.63-5.76-6.67-15-15-14Z"/><polygon className="cls-9" points="315.48 187.77 322.88 189.14 324.53 196.94 326.19 189.14 333.58 187.77 326.22 185.97 324.53 178.6 322.85 185.97 315.48 187.77"/><polygon className="cls-9" points="118.17 96.73 122.31 97.49 123.23 101.85 124.15 97.49 128.29 96.72 124.17 95.72 123.23 91.6 122.29 95.72 118.17 96.73"/><polygon className="cls-9" points="18.93 97.56 23.06 98.33 23.98 102.69 24.91 98.33 29.04 97.56 24.93 96.56 23.98 92.44 23.04 96.56 18.93 97.56"/><polygon className="cls-9" points="86.17 280.14 90.31 280.91 91.23 285.27 92.16 280.91 96.29 280.14 92.18 279.13 91.23 275.02 90.29 279.13 86.17 280.14"/><polygon className="cls-9" points="335.44 199.29 339.58 200.06 340.5 204.42 341.43 200.06 345.56 199.29 341.44 198.29 340.5 194.17 339.56 198.29 335.44 199.29"/><polygon className="cls-9" points="97.2 214.48 101.34 215.25 102.26 219.6 103.19 215.25 107.32 214.48 103.2 213.47 102.26 209.35 101.32 213.47 97.2 214.48"/><polygon className="cls-9" points="208.68 347.87 212.81 348.64 213.74 353 214.66 348.64 218.8 347.87 214.68 346.86 213.74 342.75 212.8 346.86 208.68 347.87"/><polygon className="cls-9" points="113.69 367.02 117.83 367.78 118.75 372.14 119.68 367.78 123.81 367.01 119.69 366.01 118.75 361.89 117.81 366.01 113.69 367.02"/><path className="cls-9" d="M144.49,95.53a1.2,1.2,0,0,1,0,2.39A1.2,1.2,0,0,1,144.49,95.53Z"/><path className="cls-9" d="M218.71,356.25a1.2,1.2,0,0,1,0,2.39A1.2,1.2,0,0,1,218.71,356.25Z"/><path className="cls-9" d="M147,207.13a1.2,1.2,0,0,1,0,2.4A1.2,1.2,0,0,1,147,207.13Z"/><path className="cls-9" d="M15.3,104.2a.85.85,0,0,1,0,1.7A.85.85,0,0,1,15.3,104.2Z"/><path className="cls-9" d="M289.28,350.1a.85.85,0,0,1,0,1.69A.85.85,0,0,1,289.28,350.1Z"/><path className="cls-9" d="M109,219.56a.85.85,0,0,1,0,1.69A.85.85,0,0,1,109,219.56Z"/><path className="cls-9" d="M328.55,214.52a.85.85,0,0,1,0,1.7A.85.85,0,0,1,328.55,214.52Z"/><path className="cls-9" d="M112,356.6a.85.85,0,0,1,0,1.69A.85.85,0,0,1,112,356.6Z"/><path className="cls-9" d="M302.12,208.28a.85.85,0,0,1,0,1.7A.85.85,0,0,1,302.12,208.28Z"/><path className="cls-9" d="M179.72,273.47a.85.85,0,0,1,0,1.7A.85.85,0,0,1,179.72,273.47Z"/><path className="cls-9" d="M130.75,105.61a.85.85,0,0,1,0,1.69A.85.85,0,0,1,130.75,105.61Z"/><g className="cls-16"><polygon className="cls-4" points="315.48 187.77 322.88 189.14 324.53 196.94 326.19 189.14 333.58 187.77 326.22 185.97 324.53 178.6 322.85 185.97 315.48 187.77"/><polygon className="cls-4" points="118.17 96.73 122.31 97.49 123.23 101.85 124.15 97.49 128.29 96.72 124.17 95.72 123.23 91.6 122.29 95.72 118.17 96.73"/><polygon className="cls-4" points="18.93 97.56 23.06 98.33 23.98 102.69 24.91 98.33 29.04 97.56 24.93 96.56 23.98 92.44 23.04 96.56 18.93 97.56"/><polygon className="cls-4" points="86.17 280.14 90.31 280.91 91.23 285.27 92.16 280.91 96.29 280.14 92.18 279.13 91.23 275.02 90.29 279.13 86.17 280.14"/><polygon className="cls-4" points="335.44 199.29 339.58 200.06 340.5 204.42 341.43 200.06 345.56 199.29 341.44 198.29 340.5 194.17 339.56 198.29 335.44 199.29"/><polygon className="cls-4" points="97.2 214.48 101.34 215.25 102.26 219.6 103.19 215.25 107.32 214.48 103.2 213.47 102.26 209.35 101.32 213.47 97.2 214.48"/><polygon className="cls-4" points="208.68 347.87 212.81 348.64 213.74 353 214.66 348.64 218.8 347.87 214.68 346.86 213.74 342.75 212.8 346.86 208.68 347.87"/><polygon className="cls-4" points="113.69 367.02 117.83 367.78 118.75 372.14 119.68 367.78 123.81 367.01 119.69 366.01 118.75 361.89 117.81 366.01 113.69 367.02"/><path className="cls-4" d="M144.49,95.53a1.2,1.2,0,0,1,0,2.39A1.2,1.2,0,0,1,144.49,95.53Z"/><path className="cls-9" d="M18.93,91.8a1.2,1.2,0,0,1,0,2.39A1.2,1.2,0,0,1,18.93,91.8Z"/><path className="cls-4" d="M18.93,91.8a1.2,1.2,0,0,1,0,2.39A1.2,1.2,0,0,1,18.93,91.8Z"/><path className="cls-4" d="M218.71,356.25a1.2,1.2,0,0,1,0,2.39A1.2,1.2,0,0,1,218.71,356.25Z"/><path className="cls-4" d="M147,207.13a1.2,1.2,0,0,1,0,2.4A1.2,1.2,0,0,1,147,207.13Z"/><path className="cls-4" d="M15.3,104.2a.85.85,0,0,1,0,1.7A.85.85,0,0,1,15.3,104.2Z"/><path className="cls-4" d="M289.28,350.1a.85.85,0,0,1,0,1.69A.85.85,0,0,1,289.28,350.1Z"/><path className="cls-4" d="M109,219.56a.85.85,0,0,1,0,1.69A.85.85,0,0,1,109,219.56Z"/><path className="cls-4" d="M328.55,214.52a.85.85,0,0,1,0,1.7A.85.85,0,0,1,328.55,214.52Z"/><path className="cls-4" d="M112,356.6a.85.85,0,0,1,0,1.69A.85.85,0,0,1,112,356.6Z"/><path className="cls-4" d="M302.12,208.28a.85.85,0,0,1,0,1.7A.85.85,0,0,1,302.12,208.28Z"/><path className="cls-4" d="M179.72,273.47a.85.85,0,0,1,0,1.7A.85.85,0,0,1,179.72,273.47Z"/><path className="cls-4" d="M130.75,105.61a.85.85,0,0,1,0,1.69A.85.85,0,0,1,130.75,105.61Z"/></g></g></g></svg>