<svg xmlns="http://www.w3.org/2000/svg" xmlns:xlink="http://www.w3.org/1999/xlink" viewBox="0 0 494.13 512"><defs><style>.cls-1{fill:#bdbdbd;}.cls-13,.cls-2{fill:#d7d7d7;}.cls-11,.cls-3{fill:#fff;}.cls-17,.cls-19,.cls-21,.cls-22,.cls-3{stroke:#d7d7d7;}.cls-17,.cls-21,.cls-22,.cls-26,.cls-27,.cls-3{stroke-miterlimit:10;}.cls-17,.cls-3{strokeWidth:0.57px;}.cls-24,.cls-30,.cls-4{fill:#b35907;}.cls-17,.cls-19,.cls-21,.cls-22,.cls-25,.cls-26,.cls-27,.cls-5{fill:none;}.cls-6{fill:#222221;}.cls-7{isolation:isolate;}.cls-8{opacity:0.33;fill:url(#USGS_17_Sandy_Dry_Lake);}.cls-9{fill:#f5fdff;}.cls-10{clip-path:url(#clip-path);}.cls-12{clip-path:url(#clip-path-2);}.cls-13,.cls-24,.cls-30{mix-blend-mode:multiply;}.cls-14{clip-path:url(#clip-path-3);}.cls-15{clip-path:url(#clip-path-4);}.cls-16{fill:#87cdde;}.cls-18{fill:#0891b2;}.cls-19,.cls-25{strokeLinecap:round;strokeLinejoin:round;}.cls-19{strokeWidth:0.68px;}.cls-20{fill:#231f20;}.cls-21{strokeWidth:0.34px;}.cls-22{strokeWidth:0.28px;}.cls-23{clip-path:url(#clip-path-5);}.cls-24{opacity:0.52;}.cls-25,.cls-26,.cls-27{stroke:#231f20;}.cls-25{strokeWidth:2.61px;}.cls-26{strokeWidth:3.29px;}.cls-27{strokeWidth:3.08px;}.cls-28{clip-path:url(#clip-path-6);}.cls-29{clip-path:url(#clip-path-7);}.cls-30{opacity:0.61;}.cls-31{clip-path:url(#clip-path-8);}</style><pattern id="USGS_17_Sandy_Dry_Lake" data-name="USGS 17 Sandy Dry Lake" width="72" height="72" patternTransform="translate(101.83 33.85) rotate(45) scale(1.4)" patternUnits="userSpaceOnUse" viewBox="0 0 72 72"><rect class="cls-5" width="72" height="72"/><path class="cls-6" d="M21,3a.23.23,0,0,1-.17-.07.24.24,0,0,1,0-.36.26.26,0,0,1,.35,0,.24.24,0,0,1,.07.18.23.23,0,0,1-.07.17A.22.22,0,0,1,21,3Z"/><path class="cls-6" d="M20,8.25a.31.31,0,0,1-.18-.07.27.27,0,0,1,0-.36.27.27,0,0,1,.36,0,.27.27,0,0,1,0,.36A.24.24,0,0,1,20,8.25Z"/><path class="cls-6" d="M20.25,10.5a.26.26,0,0,1-.17-.07.25.25,0,0,1-.08-.18.29.29,0,0,1,.07-.18.27.27,0,0,1,.36,0,.29.29,0,0,1,.07.18.23.23,0,0,1-.08.18A.24.24,0,0,1,20.25,10.5Z"/><path class="cls-6" d="M18,12.75a.28.28,0,0,1-.17-.07.25.25,0,0,1-.08-.18.29.29,0,0,1,.07-.18.27.27,0,0,1,.36,0,.27.27,0,0,1,0,.36A.29.29,0,0,1,18,12.75Z"/><path class="cls-6" d="M15.25,10.5a.23.23,0,0,1-.17-.07.27.27,0,0,1-.08-.18.29.29,0,0,1,.07-.18.26.26,0,0,1,.36,0,.24.24,0,0,1,.07.18.26.26,0,0,1-.25.25Z"/><path class="cls-6" d="M22.75,20a.23.23,0,0,1-.17-.07.25.25,0,0,1-.08-.18.26.26,0,0,1,.07-.17.25.25,0,0,1,.36,0,.27.27,0,0,1,.07.18.26.26,0,0,1-.07.18A.29.29,0,0,1,22.75,20Z"/><path class="cls-6" d="M15.25,23a.23.23,0,0,1-.17-.07.25.25,0,0,1-.08-.18.28.28,0,0,1,.07-.17.25.25,0,0,1,.36,0,.26.26,0,0,1,.07.18.24.24,0,0,1-.25.25Z"/><path class="cls-6" d="M14,24a.25.25,0,0,1-.18-.08.24.24,0,0,1-.07-.17.29.29,0,0,1,.07-.18.26.26,0,0,1,.36,0,.26.26,0,0,1,.07.18.24.24,0,0,1-.07.18A.29.29,0,0,1,14,24Z"/><path class="cls-6" d="M24,27a.23.23,0,0,1-.17-.07.25.25,0,0,1-.08-.18.24.24,0,0,1,.07-.17.25.25,0,0,1,.36,0,.27.27,0,0,1,.07.18A.24.24,0,0,1,24,27Z"/><path class="cls-6" d="M30.75,25.75a.23.23,0,0,1-.17-.07.24.24,0,0,1,0-.36.26.26,0,0,1,.35,0,.27.27,0,0,1,0,.36A.24.24,0,0,1,30.75,25.75Z"/><path class="cls-6" d="M31.25,23.25a.28.28,0,0,1-.17-.07A.25.25,0,0,1,31,23a.26.26,0,0,1,.07-.17.25.25,0,0,1,.36,0,.27.27,0,0,1,.07.18.24.24,0,0,1-.07.18A.29.29,0,0,1,31.25,23.25Z"/><path class="cls-6" d="M29.25,18.25a.23.23,0,0,1-.17-.07.24.24,0,0,1,0-.36.26.26,0,0,1,.35,0,.24.24,0,0,1,.07.18.29.29,0,0,1-.07.18A.26.26,0,0,1,29.25,18.25Z"/><path class="cls-6" d="M32.25,18.25a.23.23,0,0,1-.17-.07A.25.25,0,0,1,32,18a.29.29,0,0,1,.07-.18.27.27,0,0,1,.36,0,.27.27,0,0,1,0,.36A.24.24,0,0,1,32.25,18.25Z"/><path class="cls-6" d="M32.5,13.75a.26.26,0,0,1-.17-.07.24.24,0,0,1,0-.36.26.26,0,0,1,.35,0,.26.26,0,0,1,.07.18.23.23,0,0,1-.07.17A.25.25,0,0,1,32.5,13.75Z"/><path class="cls-6" d="M31.75,11.75a.23.23,0,0,1-.17-.07.24.24,0,0,1,0-.36.26.26,0,0,1,.35,0,.24.24,0,0,1,.07.18.29.29,0,0,1-.07.18A.24.24,0,0,1,31.75,11.75Z"/><path class="cls-6" d="M29.25,10.75A.24.24,0,0,1,29,10.5a.25.25,0,0,1,.08-.18.26.26,0,0,1,.35,0,.27.27,0,0,1,0,.36A.29.29,0,0,1,29.25,10.75Z"/><path class="cls-6" d="M32.25,7a.23.23,0,0,1-.17-.07A.25.25,0,0,1,32,6.75a.29.29,0,0,1,.07-.18.27.27,0,0,1,.36,0,.24.24,0,0,1,.07.18.29.29,0,0,1-.07.18A.24.24,0,0,1,32.25,7Z"/><path class="cls-6" d="M32,3a.28.28,0,0,1-.17-.07.24.24,0,0,1,0-.36.26.26,0,0,1,.35,0,.27.27,0,0,1,0,.36A.29.29,0,0,1,32,3Z"/><path class="cls-6" d="M29.25,3.25a.23.23,0,0,1-.17-.07.24.24,0,0,1,0-.36.26.26,0,0,1,.35,0A.24.24,0,0,1,29.5,3a.26.26,0,0,1-.25.25Z"/><path class="cls-6" d="M34,1.25a.26.26,0,0,1-.17-.07A.25.25,0,0,1,33.75,1a.23.23,0,0,1,.08-.18.26.26,0,0,1,.35,0,.24.24,0,0,1,.07.18.23.23,0,0,1-.07.17A.25.25,0,0,1,34,1.25Z"/><path class="cls-6" d="M41.5,7a.26.26,0,0,1-.17-.07.24.24,0,0,1,0-.36.25.25,0,0,1,.34,0,.24.24,0,0,1,.08.18.23.23,0,0,1-.07.17A.22.22,0,0,1,41.5,7Z"/><path class="cls-6" d="M45.5,6.75a.23.23,0,0,1-.17-.07.24.24,0,0,1,0-.36.26.26,0,0,1,.35,0,.25.25,0,0,1-.18.43Z"/><path class="cls-6" d="M40.25,10.25a.23.23,0,0,1-.17-.07A.27.27,0,0,1,40,10a.29.29,0,0,1,.07-.18.27.27,0,0,1,.36,0,.24.24,0,0,1,.07.18.26.26,0,0,1-.25.25Z"/><path class="cls-6" d="M45,11.75a.23.23,0,0,1-.17-.07.24.24,0,0,1,0-.36.26.26,0,0,1,.35,0,.29.29,0,0,1,.07.18.24.24,0,0,1-.25.25Z"/><path class="cls-6" d="M45,13.5a.23.23,0,0,1-.17-.07.25.25,0,1,1,.35-.35.21.21,0,0,1,.07.17.24.24,0,0,1-.25.25Z"/><path class="cls-6" d="M47,14.25a.23.23,0,0,1-.17-.07.24.24,0,0,1,0-.36.26.26,0,0,1,.35,0,.27.27,0,0,1,0,.36A.24.24,0,0,1,47,14.25Z"/><path class="cls-6" d="M47,16.25a.26.26,0,0,1-.17-.07.24.24,0,0,1,0-.36.26.26,0,0,1,.35,0,.22.22,0,0,1,.07.17.26.26,0,0,1-.07.18A.29.29,0,0,1,47,16.25Z"/><path class="cls-6" d="M47.25,22.75a.26.26,0,0,1-.17-.07A.23.23,0,0,1,47,22.5a.25.25,0,0,1,.08-.18.27.27,0,0,1,.35,0,.24.24,0,0,1,.07.18.29.29,0,0,1-.07.18A.24.24,0,0,1,47.25,22.75Z"/><path class="cls-6" d="M39,20.75a.23.23,0,0,1-.17-.07.24.24,0,0,1,0-.36.26.26,0,0,1,.35,0,.27.27,0,0,1,0,.36A.24.24,0,0,1,39,20.75Z"/><path class="cls-6" d="M50.25,13.5a.26.26,0,0,1-.17-.07.24.24,0,0,1,0-.36.26.26,0,0,1,.35,0,.27.27,0,0,1,0,.36A.29.29,0,0,1,50.25,13.5Z"/><path class="cls-6" d="M52.25,12a.23.23,0,0,1-.17-.07.24.24,0,0,1,0-.36.26.26,0,0,1,.35,0,.27.27,0,0,1,0,.36A.24.24,0,0,1,52.25,12Z"/><path class="cls-6" d="M54.75,11a.26.26,0,0,1-.17-.07.27.27,0,0,1-.08-.18.25.25,0,0,1,.08-.18.26.26,0,0,1,.35,0,.24.24,0,0,1,.07.18.26.26,0,0,1-.07.18A.29.29,0,0,1,54.75,11Z"/><path class="cls-6" d="M54.75,6.75a.24.24,0,0,1-.17-.07.29.29,0,0,1-.08-.18.28.28,0,0,1,.07-.17.26.26,0,0,1,.36,0A.27.27,0,0,1,55,6.5a.23.23,0,0,1-.07.17A.25.25,0,0,1,54.75,6.75Z"/><path class="cls-6" d="M56.5.75a.26.26,0,0,1-.17-.07A.27.27,0,0,1,56.25.5a.31.31,0,0,1,.07-.18.27.27,0,0,1,.36,0,.27.27,0,0,1,.07.18.23.23,0,0,1-.07.17A.25.25,0,0,1,56.5.75Z"/><path class="cls-6" d="M64,6.5a.26.26,0,0,1-.17-.07.27.27,0,0,1-.08-.18.26.26,0,0,1,.43-.18.27.27,0,0,1,.07.18.23.23,0,0,1-.07.17A.25.25,0,0,1,64,6.5Z"/><path class="cls-6" d="M65,2.5a.26.26,0,0,1-.17-.07.24.24,0,0,1,0-.36.26.26,0,0,1,.35,0,.24.24,0,0,1,.07.18.21.21,0,0,1-.07.17A.22.22,0,0,1,65,2.5Z"/><path class="cls-6" d="M68,3a.26.26,0,0,1-.17-.07.25.25,0,0,1-.08-.18.29.29,0,0,1,.07-.18.27.27,0,0,1,.36,0,.27.27,0,0,1,0,.36A.29.29,0,0,1,68,3Z"/><path class="cls-6" d="M68,10.25a.26.26,0,0,1-.17-.07.25.25,0,0,1-.08-.18.29.29,0,0,1,.07-.18.27.27,0,0,1,.36,0,.27.27,0,0,1,0,.36A.29.29,0,0,1,68,10.25Z"/><path class="cls-6" d="M64.25,12.25a.26.26,0,0,1-.17-.07A.27.27,0,0,1,64,12a.26.26,0,0,1,.07-.17.25.25,0,0,1,.35,0,.23.23,0,0,1,.08.18.26.26,0,0,1-.25.25Z"/><path class="cls-6" d="M65.25,15.75a.24.24,0,0,1-.17-.07.24.24,0,0,1,0-.36.26.26,0,0,1,.35,0,.22.22,0,0,1,.07.17.26.26,0,0,1-.25.25Z"/><path class="cls-6" d="M64,19.75a.26.26,0,0,1-.17-.07.24.24,0,0,1,0-.36.26.26,0,0,1,.35,0,.27.27,0,0,1,0,.36A.29.29,0,0,1,64,19.75Z"/><path class="cls-6" d="M66.25,19.75a.25.25,0,0,1-.18-.08A.24.24,0,0,1,66,19.5a.26.26,0,0,1,.43-.18.26.26,0,0,1,.07.18.24.24,0,0,1-.07.18A.29.29,0,0,1,66.25,19.75Z"/><path class="cls-6" d="M68,21.25a.26.26,0,0,1-.17-.07.27.27,0,0,1-.08-.18.28.28,0,0,1,.07-.17.26.26,0,0,1,.36,0,.27.27,0,0,1,.07.18.23.23,0,0,1-.07.17A.25.25,0,0,1,68,21.25Z"/><path class="cls-6" d="M69.25,20.25a.23.23,0,0,1-.17-.07.24.24,0,0,1,0-.36.26.26,0,0,1,.35,0,.25.25,0,0,1-.18.43Z"/><path class="cls-6" d="M69.5,18a.23.23,0,0,1-.17-.07.24.24,0,0,1,0-.36.26.26,0,0,1,.35,0,.25.25,0,0,1-.18.43Z"/><path class="cls-6" d="M71.25,17.5a.26.26,0,0,1-.17-.07.27.27,0,0,1-.08-.18.28.28,0,0,1,.07-.17.26.26,0,0,1,.36,0,.27.27,0,0,1,.07.18.23.23,0,0,1-.07.17A.25.25,0,0,1,71.25,17.5Z"/><path class="cls-6" d="M8,47a.31.31,0,0,1-.18-.07.34.34,0,0,1-.07-.18.29.29,0,0,1,.07-.18.27.27,0,0,1,.36,0,.24.24,0,0,1,.07.18A.26.26,0,0,1,8,47Z"/><path class="cls-6" d="M7,52.25a.23.23,0,0,1-.17-.07A.25.25,0,0,1,6.75,52a.29.29,0,0,1,.07-.18.27.27,0,0,1,.36,0,.26.26,0,0,1,.07.18.24.24,0,0,1-.25.25Z"/><path class="cls-6" d="M7.25,54.5a.26.26,0,0,1-.17-.07A.25.25,0,0,1,7,54.25a.31.31,0,0,1,.07-.18.27.27,0,0,1,.36,0,.25.25,0,0,1-.18.43Z"/><path class="cls-6" d="M5,56.75a.26.26,0,0,1-.17-.07.25.25,0,0,1-.08-.18.24.24,0,0,1,.07-.17.26.26,0,0,1,.36,0,.24.24,0,0,1,.07.18.29.29,0,0,1-.07.18A.26.26,0,0,1,5,56.75Z"/><path class="cls-6" d="M2.25,54.5a.23.23,0,0,1-.17-.07A.25.25,0,0,1,2,54.25a.26.26,0,0,1,.07-.17.25.25,0,0,1,.43.17.26.26,0,0,1-.07.18A.27.27,0,0,1,2.25,54.5Z"/><path class="cls-6" d="M9.75,64a.23.23,0,0,1-.17-.07.25.25,0,0,1-.08-.18.29.29,0,0,1,.07-.18.27.27,0,0,1,.36,0,.25.25,0,0,1-.18.43Z"/><path class="cls-6" d="M2.25,67a.28.28,0,0,1-.17-.07A.25.25,0,0,1,2,66.75a.29.29,0,0,1,.07-.18.27.27,0,0,1,.36,0,.24.24,0,0,1,.07.18.26.26,0,0,1-.07.18A.27.27,0,0,1,2.25,67Z"/><path class="cls-6" d="M1,68a.31.31,0,0,1-.18-.07.29.29,0,0,1-.07-.18.31.31,0,0,1,.07-.18.27.27,0,0,1,.36,0,.27.27,0,0,1,0,.36A.29.29,0,0,1,1,68Z"/><path class="cls-6" d="M11,71a.23.23,0,0,1-.17-.07.25.25,0,0,1-.08-.18.29.29,0,0,1,.07-.18.27.27,0,0,1,.36,0A.25.25,0,0,1,11,71Z"/><path class="cls-6" d="M17.75,69.75a.23.23,0,0,1-.17-.07.25.25,0,0,1-.08-.18.29.29,0,0,1,.07-.18.27.27,0,0,1,.36,0,.24.24,0,0,1,.07.18.29.29,0,0,1-.07.18A.26.26,0,0,1,17.75,69.75Z"/><path class="cls-6" d="M18.25,67.25a.28.28,0,0,1-.17-.07.25.25,0,0,1,0-.36.27.27,0,0,1,.36,0,.24.24,0,0,1,.07.18.22.22,0,0,1-.07.17A.25.25,0,0,1,18.25,67.25Z"/><path class="cls-6" d="M16.25,62.25a.25.25,0,0,1-.18-.08A.24.24,0,0,1,16,62a.29.29,0,0,1,.07-.18.27.27,0,0,1,.36,0,.27.27,0,0,1,0,.36A.29.29,0,0,1,16.25,62.25Z"/><path class="cls-6" d="M19.25,62.25a.26.26,0,0,1-.17-.07A.25.25,0,0,1,19,62a.29.29,0,0,1,.07-.18.27.27,0,0,1,.36,0,.27.27,0,0,1,.07.18.23.23,0,0,1-.08.18A.24.24,0,0,1,19.25,62.25Z"/><path class="cls-6" d="M19.5,57.75a.23.23,0,0,1-.17-.07.25.25,0,0,1-.08-.18.26.26,0,0,1,.07-.17.25.25,0,0,1,.36,0,.27.27,0,0,1,.07.18.26.26,0,0,1-.07.18A.24.24,0,0,1,19.5,57.75Z"/><path class="cls-6" d="M18.75,55.75a.23.23,0,0,1-.17-.07.24.24,0,0,1,0-.36.26.26,0,0,1,.35,0,.26.26,0,0,1,.07.18.23.23,0,0,1-.07.17A.25.25,0,0,1,18.75,55.75Z"/><path class="cls-6" d="M16.25,54.75a.31.31,0,0,1-.18-.07A.29.29,0,0,1,16,54.5a.28.28,0,0,1,.07-.17.26.26,0,0,1,.36,0,.26.26,0,0,1,.07.18.24.24,0,0,1-.25.25Z"/><path class="cls-6" d="M19.25,51a.26.26,0,0,1-.17-.07.27.27,0,0,1-.08-.18.29.29,0,0,1,.07-.18.27.27,0,0,1,.36,0,.27.27,0,0,1,.07.18.24.24,0,0,1-.07.18A.29.29,0,0,1,19.25,51Z"/><path class="cls-6" d="M19,47a.26.26,0,0,1-.17-.07.27.27,0,0,1-.08-.18.29.29,0,0,1,.07-.18.27.27,0,0,1,.36,0,.29.29,0,0,1,.07.18A.26.26,0,0,1,19,47Z"/><path class="cls-6" d="M16.25,47.25a.29.29,0,0,1-.18-.07A.31.31,0,0,1,16,47a.29.29,0,0,1,.07-.18.27.27,0,0,1,.36,0,.24.24,0,0,1,.07.18.26.26,0,0,1-.07.18A.24.24,0,0,1,16.25,47.25Z"/><path class="cls-6" d="M21,45.25a.23.23,0,0,1-.17-.07.24.24,0,0,1,0-.36.26.26,0,0,1,.35,0,.26.26,0,0,1,.07.18.23.23,0,0,1-.07.17A.22.22,0,0,1,21,45.25Z"/><path class="cls-6" d="M28.5,51a.26.26,0,0,1-.17-.07.24.24,0,0,1,0-.36.26.26,0,0,1,.35,0,.27.27,0,0,1,.07.18.26.26,0,0,1-.07.18A.29.29,0,0,1,28.5,51Z"/><path class="cls-6" d="M32.5,50.75a.26.26,0,0,1-.17-.07.24.24,0,0,1,0-.36.26.26,0,0,1,.35,0,.27.27,0,0,1,0,.36A.29.29,0,0,1,32.5,50.75Z"/><path class="cls-6" d="M27.25,54.25a.25.25,0,0,1-.18-.08A.24.24,0,0,1,27,54a.23.23,0,0,1,.08-.18.26.26,0,0,1,.35,0,.24.24,0,0,1,.07.18.26.26,0,0,1-.07.18A.27.27,0,0,1,27.25,54.25Z"/><path class="cls-6" d="M32,55.75a.28.28,0,0,1-.17-.07.25.25,0,0,1-.08-.18.26.26,0,0,1,.07-.17.25.25,0,0,1,.36,0,.27.27,0,0,1,.07.18.24.24,0,0,1-.07.18A.29.29,0,0,1,32,55.75Z"/><path class="cls-6" d="M32,57.5a.23.23,0,0,1-.17-.07.25.25,0,0,1-.08-.18.26.26,0,0,1,.07-.17.25.25,0,0,1,.36,0,.27.27,0,0,1,.07.18.26.26,0,0,1-.07.18A.24.24,0,0,1,32,57.5Z"/><path class="cls-6" d="M34,58.25a.25.25,0,0,1-.18-.08.24.24,0,0,1-.07-.17.23.23,0,0,1,.08-.18.26.26,0,0,1,.35,0,.24.24,0,0,1,.07.18.26.26,0,0,1-.07.18A.27.27,0,0,1,34,58.25Z"/><path class="cls-6" d="M34,60.25a.23.23,0,0,1-.17-.07.24.24,0,0,1,0-.36.26.26,0,0,1,.35,0,.27.27,0,0,1,.07.18.26.26,0,0,1-.07.18A.29.29,0,0,1,34,60.25Z"/><path class="cls-6" d="M34.25,66.75a.26.26,0,0,1-.17-.07.24.24,0,0,1,0-.36.26.26,0,0,1,.35,0,.27.27,0,0,1,0,.36A.29.29,0,0,1,34.25,66.75Z"/><path class="cls-6" d="M26,64.75a.23.23,0,0,1-.17-.07.25.25,0,1,1,.35-.35.22.22,0,0,1,.07.17.24.24,0,0,1-.25.25Z"/><path class="cls-6" d="M37.25,57.5a.26.26,0,0,1-.17-.07.24.24,0,0,1,0-.36.25.25,0,0,1,.34,0,.23.23,0,0,1,.08.18.23.23,0,0,1-.07.17A.22.22,0,0,1,37.25,57.5Z"/><path class="cls-6" d="M39.25,56a.26.26,0,0,1-.17-.07.24.24,0,0,1,0-.36.26.26,0,0,1,.35,0,.26.26,0,0,1,.07.18.23.23,0,0,1-.07.17A.22.22,0,0,1,39.25,56Z"/><path class="cls-6" d="M41.75,55a.26.26,0,0,1-.17-.07.25.25,0,0,1-.08-.18.23.23,0,0,1,.08-.18.26.26,0,0,1,.35,0,.24.24,0,0,1,.07.18.23.23,0,0,1-.07.17A.25.25,0,0,1,41.75,55Z"/><path class="cls-6" d="M41.75,50.75a.23.23,0,0,1-.17-.07.24.24,0,0,1,0-.36.26.26,0,0,1,.35,0,.24.24,0,0,1,.07.18.26.26,0,0,1-.07.18A.29.29,0,0,1,41.75,50.75Z"/><path class="cls-6" d="M43.5,44.75a.28.28,0,0,1-.17-.07.24.24,0,0,1,0-.36.26.26,0,0,1,.35,0,.25.25,0,0,1-.18.43Z"/><path class="cls-6" d="M51,50.5a.28.28,0,0,1-.17-.07.24.24,0,0,1,0-.36.26.26,0,0,1,.35,0,.25.25,0,0,1-.18.43Z"/><path class="cls-6" d="M52,46.5a.26.26,0,0,1-.17-.07.24.24,0,0,1,0-.36.26.26,0,0,1,.35,0,.27.27,0,0,1,.07.18.23.23,0,0,1-.07.17A.22.22,0,0,1,52,46.5Z"/><path class="cls-6" d="M55,47a.23.23,0,0,1-.17-.07.24.24,0,0,1,0-.36.26.26,0,0,1,.35,0,.27.27,0,0,1,0,.36A.24.24,0,0,1,55,47Z"/><path class="cls-6" d="M55,54.25a.28.28,0,0,1-.17-.07.24.24,0,0,1,0-.36.26.26,0,0,1,.35,0,.27.27,0,0,1,0,.36A.24.24,0,0,1,55,54.25Z"/><path class="cls-6" d="M51.25,56.25a.26.26,0,0,1-.17-.07.24.24,0,0,1,0-.36.26.26,0,0,1,.35,0,.27.27,0,0,1,0,.36A.29.29,0,0,1,51.25,56.25Z"/><path class="cls-6" d="M52.25,59.75a.23.23,0,0,1-.17-.07.24.24,0,0,1,0-.36.26.26,0,0,1,.35,0,.27.27,0,0,1,.07.18.23.23,0,0,1-.07.17A.22.22,0,0,1,52.25,59.75Z"/><path class="cls-6" d="M51,63.75a.26.26,0,0,1-.17-.07.24.24,0,0,1,0-.36.26.26,0,0,1,.35,0,.26.26,0,0,1,.07.18.26.26,0,0,1-.25.25Z"/><path class="cls-6" d="M53.25,63.75a.26.26,0,0,1-.17-.07A.27.27,0,0,1,53,63.5a.26.26,0,0,1,.43-.18.27.27,0,0,1,.07.18.23.23,0,0,1-.07.17A.25.25,0,0,1,53.25,63.75Z"/><path class="cls-6" d="M55,65.25a.28.28,0,0,1-.17-.07.24.24,0,0,1,0-.36.26.26,0,0,1,.35,0,.27.27,0,0,1,0,.36A.24.24,0,0,1,55,65.25Z"/><path class="cls-6" d="M56.25,64.25a.28.28,0,0,1-.17-.07.24.24,0,0,1,0-.36.26.26,0,0,1,.35,0,.26.26,0,0,1,.07.18.24.24,0,0,1-.25.25Z"/><path class="cls-6" d="M56.5,62a.26.26,0,0,1-.17-.07.29.29,0,0,1-.08-.18.25.25,0,0,1,.08-.18.26.26,0,0,1,.35,0,.22.22,0,0,1,.07.17.23.23,0,0,1-.07.17A.25.25,0,0,1,56.5,62Z"/><path class="cls-6" d="M58.25,61.5a.26.26,0,0,1-.17-.07.27.27,0,0,1-.08-.18.26.26,0,0,1,.43-.18.27.27,0,0,1,.07.18.26.26,0,0,1-.25.25Z"/><path class="cls-6" d="M21,27a.23.23,0,0,1-.17-.07.24.24,0,0,1,0-.36.26.26,0,0,1,.35,0A.25.25,0,0,1,21,27Z"/><path class="cls-6" d="M22.75,24a.24.24,0,0,1-.25-.25.25.25,0,0,1,.08-.18.26.26,0,0,1,.35,0,.27.27,0,0,1,0,.36A.27.27,0,0,1,22.75,24Z"/><path class="cls-6" d="M25.25,24.5a.28.28,0,0,1-.17-.07.24.24,0,0,1,0-.36.26.26,0,0,1,.35,0,.27.27,0,0,1,0,.36A.29.29,0,0,1,25.25,24.5Z"/><path class="cls-6" d="M35.25,23.25a.23.23,0,0,1-.17-.07.24.24,0,0,1,0-.36.26.26,0,0,1,.35,0,.24.24,0,0,1,.07.18.29.29,0,0,1-.07.18A.24.24,0,0,1,35.25,23.25Z"/><path class="cls-6" d="M39,24.75a.23.23,0,0,1-.17-.07.24.24,0,0,1,0-.36.26.26,0,0,1,.35,0,.24.24,0,0,1,.07.18.29.29,0,0,1-.07.18A.26.26,0,0,1,39,24.75Z"/><path class="cls-6" d="M45,29.5a.23.23,0,0,1-.17-.07.24.24,0,0,1,0-.36.26.26,0,0,1,.35,0,.27.27,0,0,1,0,.36A.26.26,0,0,1,45,29.5Z"/><path class="cls-6" d="M46.25,29a.26.26,0,0,1-.17-.07.24.24,0,0,1,0-.36.25.25,0,0,1,.34,0,.24.24,0,0,1,.08.18.23.23,0,0,1-.07.17A.22.22,0,0,1,46.25,29Z"/><path class="cls-6" d="M55.25,28a.26.26,0,0,1-.17-.07.24.24,0,0,1,0-.36.26.26,0,0,1,.35,0,.27.27,0,0,1,0,.36A.29.29,0,0,1,55.25,28Z"/><path class="cls-6" d="M51.25,25.25a.23.23,0,0,1-.17-.07.24.24,0,0,1,0-.36.26.26,0,0,1,.35,0,.24.24,0,0,1,.07.18.29.29,0,0,1-.07.18A.24.24,0,0,1,51.25,25.25Z"/><path class="cls-6" d="M52,29.5a.26.26,0,0,1-.17-.07.24.24,0,0,1,0-.36.26.26,0,0,1,.35,0,.27.27,0,0,1,.07.18.23.23,0,0,1-.07.17A.22.22,0,0,1,52,29.5Z"/><path class="cls-6" d="M62.5,35.5a.26.26,0,0,1-.17-.07.24.24,0,0,1,0-.36.26.26,0,0,1,.34,0,.23.23,0,0,1,.08.18.24.24,0,0,1-.25.25Z"/><path class="cls-6" d="M58.25,38.25a.24.24,0,0,1-.17-.07A.27.27,0,0,1,58,38a.26.26,0,0,1,.43-.18.27.27,0,0,1,.07.18.26.26,0,0,1-.25.25Z"/><path class="cls-6" d="M49,39a.24.24,0,0,1-.17-.07.27.27,0,0,1-.08-.18.26.26,0,0,1,.43-.18.27.27,0,0,1,.07.18.23.23,0,0,1-.07.17A.25.25,0,0,1,49,39Z"/><path class="cls-6" d="M48,41.25a.23.23,0,0,1-.17-.07.24.24,0,0,1,0-.36.25.25,0,0,1,.34,0,.23.23,0,0,1,.08.18.23.23,0,0,1-.07.17A.23.23,0,0,1,48,41.25Z"/><path class="cls-6" d="M52,43a.25.25,0,0,1-.18-.08.24.24,0,0,1-.07-.17.25.25,0,0,1,.08-.18.26.26,0,0,1,.35,0,.27.27,0,0,1,0,.36A.29.29,0,0,1,52,43Z"/><path class="cls-6" d="M53.5,45a.26.26,0,0,1-.17-.07.24.24,0,0,1,0-.36.26.26,0,0,1,.35,0,.27.27,0,0,1,0,.36A.29.29,0,0,1,53.5,45Z"/><path class="cls-6" d="M62.25,48a.26.26,0,0,1-.17-.07.27.27,0,0,1-.08-.18.26.26,0,0,1,.43-.18.27.27,0,0,1,.07.18.23.23,0,0,1-.07.17A.25.25,0,0,1,62.25,48Z"/><path class="cls-6" d="M65,51.75a.28.28,0,0,1-.17-.07.25.25,0,0,1-.08-.18.23.23,0,0,1,.08-.18.27.27,0,0,1,.35,0,.29.29,0,0,1,.07.18.24.24,0,0,1-.25.25Z"/><path class="cls-6" d="M67,51.75a.26.26,0,0,1-.17-.07.24.24,0,0,1,0-.36.27.27,0,0,1,.35,0,.25.25,0,0,1-.18.43Z"/><path class="cls-6" d="M69.5,45a.28.28,0,0,1-.17-.07.24.24,0,0,1,0-.36.26.26,0,0,1,.35,0,.25.25,0,0,1-.18.43Z"/><path class="cls-6" d="M60,39a.23.23,0,0,1-.17-.07.24.24,0,0,1,0-.36.26.26,0,0,1,.35,0,.27.27,0,0,1,0,.36A.24.24,0,0,1,60,39Z"/><path class="cls-6" d="M47.25,47.75a.26.26,0,0,1-.17-.07A.25.25,0,0,1,47,47.5a.23.23,0,0,1,.08-.18.27.27,0,0,1,.35,0,.29.29,0,0,1,.07.18.24.24,0,0,1-.25.25Z"/><path class="cls-6" d="M32.5,47a.28.28,0,0,1-.17-.07.24.24,0,0,1,0-.36.26.26,0,0,1,.35,0,.27.27,0,0,1,0,.36A.29.29,0,0,1,32.5,47Z"/><path class="cls-6" d="M37,44.5a.28.28,0,0,1-.17-.07.27.27,0,0,1-.08-.18.24.24,0,0,1,.07-.17.25.25,0,0,1,.36,0,.26.26,0,0,1,.07.18.22.22,0,0,1-.07.17A.25.25,0,0,1,37,44.5Z"/><path class="cls-6" d="M26.25,37.75a.28.28,0,0,1-.17-.07.24.24,0,0,1,0-.36.26.26,0,0,1,.35,0,.27.27,0,0,1,0,.36A.29.29,0,0,1,26.25,37.75Z"/><path class="cls-6" d="M29.75,35.5a.23.23,0,0,1-.17-.07.24.24,0,0,1,0-.36.26.26,0,0,1,.35,0,.26.26,0,0,1,.07.18.23.23,0,0,1-.07.17A.22.22,0,0,1,29.75,35.5Z"/><path class="cls-6" d="M17,28.5a.23.23,0,0,1-.17-.07.25.25,0,0,1-.08-.18.28.28,0,0,1,.07-.17.25.25,0,0,1,.36,0,.26.26,0,0,1,.07.18.24.24,0,0,1-.25.25Z"/><path class="cls-6" d="M10.5,29.5a.23.23,0,0,1-.17-.07.25.25,0,0,1-.08-.18.28.28,0,0,1,.07-.17.25.25,0,0,1,.36,0,.27.27,0,0,1,.07.18.26.26,0,0,1-.07.18A.24.24,0,0,1,10.5,29.5Z"/><path class="cls-6" d="M6,31.5a.23.23,0,0,1-.17-.07.25.25,0,0,1-.08-.18.28.28,0,0,1,.07-.17.25.25,0,0,1,.36,0,.27.27,0,0,1,.07.18A.24.24,0,0,1,6,31.5Z"/><path class="cls-6" d="M2.5,35.25a.24.24,0,0,1-.17-.07A.27.27,0,0,1,2.25,35a.25.25,0,0,1,.08-.18.25.25,0,0,1,.34,0,.25.25,0,0,1-.17.43Z"/><path class="cls-6" d="M11.25,36.75a.29.29,0,0,1-.18-.07A.31.31,0,0,1,11,36.5a.29.29,0,0,1,.07-.18.27.27,0,0,1,.36,0,.25.25,0,0,1-.18.43Z"/><path class="cls-6" d="M17,42a.23.23,0,0,1-.17-.07.25.25,0,0,1-.08-.18.31.31,0,0,1,.07-.18.27.27,0,0,1,.36,0,.24.24,0,0,1,.07.18.29.29,0,0,1-.07.18A.24.24,0,0,1,17,42Z"/><path class="cls-6" d="M12.75,36a.26.26,0,0,1-.17-.07.25.25,0,0,1-.08-.18.26.26,0,0,1,.43-.18.27.27,0,0,1,0,.36A.26.26,0,0,1,12.75,36Z"/><path class="cls-6" d="M26.5,30.25a.23.23,0,0,1-.17-.07.24.24,0,0,1,0-.36.26.26,0,0,1,.35,0,.27.27,0,0,1,0,.36A.24.24,0,0,1,26.5,30.25Z"/><path class="cls-6" d="M37.75,31a.23.23,0,0,1-.17-.07.24.24,0,0,1,0-.36.26.26,0,0,1,.35,0,.27.27,0,0,1,0,.36A.26.26,0,0,1,37.75,31Z"/><path class="cls-6" d="M39.5,32.5a.23.23,0,0,1-.17-.07.25.25,0,1,1,.35-.35.22.22,0,0,1,.07.17.26.26,0,0,1-.07.18A.29.29,0,0,1,39.5,32.5Z"/><path class="cls-6" d="M28,42a.28.28,0,0,1-.17-.07.27.27,0,0,1-.08-.18.28.28,0,0,1,.07-.17.25.25,0,0,1,.35,0,.24.24,0,0,1,.08.18A.26.26,0,0,1,28,42Z"/><path class="cls-6" d="M6.5,20.5a.26.26,0,0,1-.17-.07.27.27,0,0,1-.08-.18.29.29,0,0,1,.07-.18.27.27,0,0,1,.36,0,.24.24,0,0,1,.07.18.26.26,0,0,1-.25.25Z"/><path class="cls-6" d="M10.25,20.25a.26.26,0,0,1-.17-.07A.25.25,0,0,1,10,20a.29.29,0,0,1,.07-.18.27.27,0,0,1,.36,0,.25.25,0,0,1-.18.43Z"/><path class="cls-6" d="M11.75,23.5a.23.23,0,0,1-.17-.07.25.25,0,0,1-.08-.18.28.28,0,0,1,.07-.17.25.25,0,0,1,.36,0,.27.27,0,0,1,.07.18.24.24,0,0,1-.25.25Z"/><path class="cls-6" d="M3,25.75a.26.26,0,0,1-.17-.07.25.25,0,0,1-.08-.18.29.29,0,0,1,.07-.18.27.27,0,0,1,.36,0,.27.27,0,0,1,0,.36A.26.26,0,0,1,3,25.75Z"/><path class="cls-6" d="M64.25,29.5a.26.26,0,0,1-.17-.07.27.27,0,0,1-.08-.18.26.26,0,0,1,.07-.17.25.25,0,0,1,.35,0,.23.23,0,0,1,.08.18.26.26,0,0,1-.25.25Z"/><path class="cls-6" d="M67.5,30.75a.26.26,0,0,1-.17-.07.25.25,0,0,1-.08-.18.26.26,0,0,1,.43-.18.27.27,0,0,1,.07.18.26.26,0,0,1-.07.18A.29.29,0,0,1,67.5,30.75Z"/><path class="cls-6" d="M69.5,29.75a.26.26,0,0,1-.17-.07.24.24,0,0,1,0-.36.26.26,0,0,1,.35,0,.27.27,0,0,1,0,.36A.29.29,0,0,1,69.5,29.75Z"/><path class="cls-6" d="M7.25,15.75a.25.25,0,0,1-.18-.08A.24.24,0,0,1,7,15.5a.29.29,0,0,1,.07-.18.27.27,0,0,1,.36,0,.25.25,0,0,1-.18.43Z"/><path class="cls-6" d="M1.5,9a.31.31,0,0,1-.18-.07.27.27,0,0,1,0-.36.27.27,0,0,1,.36,0,.27.27,0,0,1,0,.36A.29.29,0,0,1,1.5,9Z"/><path class="cls-6" d="M14.5,6.5a.23.23,0,0,1-.17-.07.25.25,0,0,1-.08-.18.26.26,0,0,1,.07-.17.25.25,0,0,1,.36,0,.25.25,0,0,1-.18.43Z"/><path class="cls-6" d="M8.5,5.25a.23.23,0,0,1-.17-.07A.25.25,0,0,1,8.25,5a.29.29,0,0,1,.07-.18.26.26,0,0,1,.36,0A.21.21,0,0,1,8.75,5a.26.26,0,0,1-.07.18A.24.24,0,0,1,8.5,5.25Z"/><path class="cls-6" d="M3.5,2.5a.25.25,0,0,1-.18-.08.24.24,0,0,1-.07-.17.25.25,0,0,1,.08-.18.26.26,0,0,1,.35,0,.27.27,0,0,1,0,.36A.29.29,0,0,1,3.5,2.5Z"/><path class="cls-6" d="M3.75,6a.26.26,0,0,1-.17-.07.25.25,0,0,1-.08-.18.31.31,0,0,1,.07-.18.27.27,0,0,1,.36,0,.27.27,0,0,1,0,.36A.26.26,0,0,1,3.75,6Z"/><path class="cls-6" d="M12.75,14.25a.26.26,0,0,1-.17-.07A.27.27,0,0,1,12.5,14a.29.29,0,0,1,.07-.18.27.27,0,0,1,.36,0A.24.24,0,0,1,13,14a.26.26,0,0,1-.25.25Z"/><path class="cls-6" d="M18.5,19.25a.23.23,0,0,1-.17-.07.25.25,0,0,1-.08-.18.26.26,0,0,1,.07-.17.25.25,0,0,1,.36,0,.27.27,0,0,1,.07.18.24.24,0,0,1-.07.18A.29.29,0,0,1,18.5,19.25Z"/><path class="cls-6" d="M21.25,37a.23.23,0,0,1-.17-.07.27.27,0,0,1-.08-.18.29.29,0,0,1,.07-.18.27.27,0,0,1,.36,0,.24.24,0,0,1,.07.18.26.26,0,0,1-.25.25Z"/><path class="cls-6" d="M.75,44.25a.26.26,0,0,1-.17-.07.24.24,0,0,1,0-.36.26.26,0,0,1,.35,0A.24.24,0,0,1,1,44a.29.29,0,0,1-.07.18A.29.29,0,0,1,.75,44.25Z"/><path class="cls-6" d="M66.5,37.25a.26.26,0,0,1-.17-.07.24.24,0,0,1,0-.36.26.26,0,0,1,.35,0,.27.27,0,0,1,0,.36A.29.29,0,0,1,66.5,37.25Z"/><path class="cls-6" d="M68,66a.26.26,0,0,1-.17-.07.27.27,0,0,1-.08-.18.29.29,0,0,1,.07-.18.27.27,0,0,1,.36,0,.26.26,0,0,1,.07.18.23.23,0,0,1-.07.17A.25.25,0,0,1,68,66Z"/><path class="cls-6" d="M59.75,69.75a.25.25,0,0,1-.18-.08.24.24,0,0,1-.07-.17.25.25,0,0,1,.08-.18.26.26,0,0,1,.35,0,.26.26,0,0,1,.07.18.24.24,0,0,1-.07.18A.29.29,0,0,1,59.75,69.75Z"/><path class="cls-6" d="M40.5,68a.23.23,0,0,1-.17-.07.24.24,0,0,1,0-.36.26.26,0,0,1,.35,0,.25.25,0,0,1-.18.43Z"/><path class="cls-6" d="M44,63a.26.26,0,0,1-.25-.25.25.25,0,0,1,.08-.18.26.26,0,0,1,.35,0,.26.26,0,0,1,.07.18A.24.24,0,0,1,44,63Z"/><path class="cls-6" d="M25.75,70a.23.23,0,0,1-.17-.07.24.24,0,0,1,0-.36.26.26,0,0,1,.35,0,.24.24,0,0,1,.07.18.23.23,0,0,1-.07.17A.22.22,0,0,1,25.75,70Z"/><path class="cls-6" d="M4.5,60a.23.23,0,0,1-.17-.07.25.25,0,0,1-.08-.18.26.26,0,0,1,.07-.17.25.25,0,0,1,.36,0,.27.27,0,0,1,.07.18A.24.24,0,0,1,4.5,60Z"/><path class="cls-6" d="M26.5,59.5a.23.23,0,0,1-.17-.07.24.24,0,0,1,0-.36.26.26,0,0,1,.35,0,.24.24,0,0,1,.07.18.26.26,0,0,1-.07.18A.24.24,0,0,1,26.5,59.5Z"/><path class="cls-6" d="M37.25,48.5a.28.28,0,0,1-.17-.07.24.24,0,0,1,0-.36.25.25,0,0,1,.34,0,.23.23,0,0,1,.08.18.26.26,0,0,1-.07.18A.27.27,0,0,1,37.25,48.5Z"/><path class="cls-6" d="M22,41.75a.23.23,0,0,1-.17-.07.24.24,0,0,1,0-.36.26.26,0,0,1,.35,0,.25.25,0,0,1-.18.43Z"/><path class="cls-6" d="M8.75,40.25a.26.26,0,0,1-.17-.07A.27.27,0,0,1,8.5,40a.25.25,0,0,1,.08-.18.26.26,0,0,1,.35,0A.29.29,0,0,1,9,40a.24.24,0,0,1-.25.25Z"/><path class="cls-6" d="M24,29a.23.23,0,0,1-.17-.07.24.24,0,0,1,0-.36.26.26,0,0,1,.35,0,.26.26,0,0,1,.07.18.23.23,0,0,1-.07.17A.22.22,0,0,1,24,29Z"/><path class="cls-6" d="M41.5,34.5a.26.26,0,0,1-.17-.07.24.24,0,0,1,0-.36.25.25,0,0,1,.34,0,.24.24,0,0,1,.08.18.23.23,0,0,1-.07.17A.22.22,0,0,1,41.5,34.5Z"/><path class="cls-6" d="M51.5,37.5a.26.26,0,0,1-.17-.07.24.24,0,0,1,0-.36.26.26,0,0,1,.35,0,.26.26,0,0,1,.07.18.26.26,0,0,1-.25.25Z"/><path class="cls-6" d="M60.75,46a.28.28,0,0,1-.17-.07.25.25,0,0,1-.08-.18.23.23,0,0,1,.08-.18.26.26,0,0,1,.35,0,.27.27,0,0,1,0,.36A.29.29,0,0,1,60.75,46Z"/><path class="cls-6" d="M67.5,43.75a.26.26,0,0,1-.17-.07.24.24,0,0,1,0-.36.27.27,0,0,1,.35,0,.27.27,0,0,1,0,.36A.29.29,0,0,1,67.5,43.75Z"/><path class="cls-6" d="M51.25,66.25a.23.23,0,0,1-.17-.07.24.24,0,0,1,0-.36.26.26,0,0,1,.35,0,.24.24,0,0,1,.07.18.29.29,0,0,1-.07.18A.24.24,0,0,1,51.25,66.25Z"/><path class="cls-6" d="M40,37.75a.26.26,0,0,1-.17-.07.24.24,0,0,1,0-.36.26.26,0,0,1,.35,0,.26.26,0,0,1,.07.18.23.23,0,0,1-.07.17A.25.25,0,0,1,40,37.75Z"/><path class="cls-6" d="M53.25,15a.26.26,0,0,1-.17-.07.24.24,0,0,1,0-.36.26.26,0,0,1,.35,0,.22.22,0,0,1,.07.17.26.26,0,0,1-.07.18A.29.29,0,0,1,53.25,15Z"/><path class="cls-6" d="M34,16a.25.25,0,0,1-.18-.08.24.24,0,0,1-.07-.17.23.23,0,0,1,.08-.18.26.26,0,0,1,.35,0,.24.24,0,0,1,.07.18.26.26,0,0,1-.07.18A.29.29,0,0,1,34,16Z"/><path class="cls-6" d="M27.5,13.5a.23.23,0,0,1-.17-.07.25.25,0,0,1-.08-.18.24.24,0,0,1,.07-.17.25.25,0,0,1,.36,0,.26.26,0,0,1,.07.18.24.24,0,0,1-.25.25Z"/><path class="cls-6" d="M12.75,19.25a.26.26,0,0,1-.17-.07A.25.25,0,0,1,12.5,19a.28.28,0,0,1,.07-.17.26.26,0,0,1,.36,0A.26.26,0,0,1,13,19a.24.24,0,0,1-.25.25Z"/><path class="cls-6" d="M19.75,26.5a.23.23,0,0,1-.17-.07.25.25,0,0,1-.08-.18.28.28,0,0,1,.07-.17.25.25,0,0,1,.36,0,.26.26,0,0,1,.07.18.24.24,0,0,1-.07.18A.26.26,0,0,1,19.75,26.5Z"/><path class="cls-6" d="M49.5,4.5a.26.26,0,0,1-.17-.07.24.24,0,0,1,0-.36.27.27,0,0,1,.35,0,.27.27,0,0,1,0,.36A.29.29,0,0,1,49.5,4.5Z"/><path class="cls-6" d="M11.75,1.75a.23.23,0,0,1-.17-.07.25.25,0,0,1-.08-.18.31.31,0,0,1,.07-.18.27.27,0,0,1,.36,0,.27.27,0,0,1,0,.36A.24.24,0,0,1,11.75,1.75Z"/><path class="cls-6" d="M55.25,3.75a.26.26,0,0,1-.17-.07.24.24,0,0,1,0-.36.26.26,0,0,1,.35,0,.27.27,0,0,1,0,.36A.29.29,0,0,1,55.25,3.75Z"/><path class="cls-6" d="M59,20.75a.26.26,0,0,1-.17-.07.24.24,0,0,1,0-.36.26.26,0,0,1,.35,0,.27.27,0,0,1,.07.18.23.23,0,0,1-.07.17A.22.22,0,0,1,59,20.75Z"/><path class="cls-6" d="M67.5,57.25a.26.26,0,0,1-.17-.07.27.27,0,0,1-.08-.18.25.25,0,0,1,.08-.18.26.26,0,0,1,.35,0,.26.26,0,0,1,.07.18.23.23,0,0,1-.07.17A.25.25,0,0,1,67.5,57.25Z"/><path class="cls-6" d="M47.25,69.75a.26.26,0,0,1-.17-.07.24.24,0,0,1,0-.36.27.27,0,0,1,.35,0,.27.27,0,0,1,0,.36A.24.24,0,0,1,47.25,69.75Z"/><path class="cls-6" d="M5.25,69.75a.26.26,0,0,1-.17-.07A.25.25,0,0,1,5,69.5a.28.28,0,0,1,.07-.17.26.26,0,0,1,.36,0,.26.26,0,0,1,.07.18.24.24,0,0,1-.07.18A.26.26,0,0,1,5.25,69.75Z"/><path class="cls-6" d="M4.75,40.25a.31.31,0,0,1-.18-.07.27.27,0,0,1,0-.36.27.27,0,0,1,.36,0,.27.27,0,0,1,0,.36A.29.29,0,0,1,4.75,40.25Z"/><path class="cls-6" d="M69.75,12.75a.24.24,0,0,1-.17-.07.24.24,0,0,1,0-.36.26.26,0,0,1,.35,0,.27.27,0,0,1,0,.36A.29.29,0,0,1,69.75,12.75Z"/><path class="cls-6" d="M23.25,14a.23.23,0,0,1-.17-.07.25.25,0,0,1-.08-.18.24.24,0,0,1,.07-.17.25.25,0,0,1,.36,0,.27.27,0,0,1,.07.18.26.26,0,0,1-.07.18A.24.24,0,0,1,23.25,14Z"/><path class="cls-6" d="M20.5,17.25a.26.26,0,0,1-.17-.07.24.24,0,0,1,0-.36.26.26,0,0,1,.35,0,.22.22,0,0,1,.07.17.26.26,0,0,1-.07.18A.29.29,0,0,1,20.5,17.25Z"/><path class="cls-6" d="M14.75,17.25a.23.23,0,0,1-.17-.07A.25.25,0,0,1,14.5,17a.31.31,0,0,1,.07-.18.27.27,0,0,1,.36,0,.27.27,0,0,1,0,.36A.24.24,0,0,1,14.75,17.25Z"/><path class="cls-6" d="M2.75,13.25a.24.24,0,0,1-.17-.07A.27.27,0,0,1,2.5,13a.25.25,0,0,1,.08-.18.26.26,0,0,1,.35,0A.29.29,0,0,1,3,13a.24.24,0,0,1-.07.18A.29.29,0,0,1,2.75,13.25Z"/><path class="cls-6" d="M6,11.75a.23.23,0,0,1-.17-.07.27.27,0,0,1-.08-.18.29.29,0,0,1,.07-.18.26.26,0,0,1,.36,0,.24.24,0,0,1,.07.18.23.23,0,0,1-.07.17A.22.22,0,0,1,6,11.75Z"/><path class="cls-6" d="M7,2.75a.23.23,0,0,1-.17-.07.27.27,0,0,1-.08-.18.29.29,0,0,1,.07-.18.27.27,0,0,1,.36,0,.26.26,0,0,1,.07.18.23.23,0,0,1-.07.17A.22.22,0,0,1,7,2.75Z"/><path class="cls-6" d="M10,8.25a.29.29,0,0,1-.18-.07A.31.31,0,0,1,9.75,8a.29.29,0,0,1,.07-.18.27.27,0,0,1,.36,0,.24.24,0,0,1,.07.18.26.26,0,0,1-.25.25Z"/><path class="cls-6" d="M16,8.25a.31.31,0,0,1-.18-.07A.29.29,0,0,1,15.75,8a.25.25,0,0,1,.08-.18.26.26,0,0,1,.35,0,.27.27,0,0,1,0,.36A.29.29,0,0,1,16,8.25Z"/><path class="cls-6" d="M16.5,3.25a.23.23,0,0,1-.17-.07A.25.25,0,0,1,16.25,3a.29.29,0,0,1,.07-.18.26.26,0,0,1,.36,0,.27.27,0,0,1,0,.36A.26.26,0,0,1,16.5,3.25Z"/><path class="cls-6" d="M25.75,7a.23.23,0,0,1-.17-.07.24.24,0,0,1,0-.36.26.26,0,0,1,.35,0,.27.27,0,0,1,0,.36A.24.24,0,0,1,25.75,7Z"/><path class="cls-6" d="M37,7.5a.23.23,0,0,1-.17-.07.24.24,0,0,1,0-.36.26.26,0,0,1,.35,0,.27.27,0,0,1,0,.36A.26.26,0,0,1,37,7.5Z"/><path class="cls-6" d="M40.5,4.5a.26.26,0,0,1-.17-.07.23.23,0,0,1-.08-.18.25.25,0,0,1,.08-.18.26.26,0,0,1,.35,0,.27.27,0,0,1,.07.18.24.24,0,0,1-.07.18A.29.29,0,0,1,40.5,4.5Z"/><path class="cls-6" d="M37.5,4.25a.26.26,0,0,1-.17-.07A.23.23,0,0,1,37.25,4a.25.25,0,0,1,.08-.18.26.26,0,0,1,.35,0,.27.27,0,0,1,.07.18.26.26,0,0,1-.07.18A.24.24,0,0,1,37.5,4.25Z"/><path class="cls-6" d="M43.25,2.25a.25.25,0,0,1-.18-.08A.24.24,0,0,1,43,2a.25.25,0,0,1,.08-.18.26.26,0,0,1,.35,0,.27.27,0,0,1,0,.36A.29.29,0,0,1,43.25,2.25Z"/><path class="cls-6" d="M49.5,8.25a.26.26,0,0,1-.17-.07.24.24,0,0,1,0-.36.26.26,0,0,1,.35,0,.27.27,0,0,1,0,.36A.29.29,0,0,1,49.5,8.25Z"/><path class="cls-6" d="M46,9.25a.26.26,0,0,1-.17-.07.24.24,0,0,1,0-.36.27.27,0,0,1,.35,0,.27.27,0,0,1,0,.36A.29.29,0,0,1,46,9.25Z"/><path class="cls-6" d="M35.75,11a.26.26,0,0,1-.17-.07.24.24,0,0,1,0-.36.26.26,0,0,1,.35,0,.27.27,0,0,1,0,.36A.29.29,0,0,1,35.75,11Z"/><path class="cls-6" d="M39.25,15a.23.23,0,0,1-.17-.07.24.24,0,0,1,0-.36.26.26,0,0,1,.35,0,.27.27,0,0,1,.07.18.26.26,0,0,1-.07.18A.24.24,0,0,1,39.25,15Z"/><path class="cls-6" d="M24.75,18a.23.23,0,0,1-.17-.07.25.25,0,0,1-.08-.18.29.29,0,0,1,.07-.18.27.27,0,0,1,.36,0,.25.25,0,0,1-.18.43Z"/><path class="cls-6" d="M8.25,27.25a.23.23,0,0,1-.17-.07A.25.25,0,0,1,8,27a.29.29,0,0,1,.07-.18.26.26,0,0,1,.36,0A.26.26,0,0,1,8.5,27a.24.24,0,0,1-.07.18A.29.29,0,0,1,8.25,27.25Z"/><path class="cls-6" d="M16,31.75a.31.31,0,0,1-.18-.07.29.29,0,0,1-.07-.18.25.25,0,0,1,.08-.18.26.26,0,0,1,.35,0,.27.27,0,0,1,0,.36A.29.29,0,0,1,16,31.75Z"/><path class="cls-6" d="M10.5,33.5a.23.23,0,0,1-.17-.07.27.27,0,0,1-.08-.18.29.29,0,0,1,.07-.18.26.26,0,0,1,.36,0,.26.26,0,0,1,.07.18.23.23,0,0,1-.07.17A.22.22,0,0,1,10.5,33.5Z"/><path class="cls-6" d="M5.25,37a.26.26,0,0,1-.17-.07A.25.25,0,0,1,5,36.75a.28.28,0,0,1,.07-.17.26.26,0,0,1,.36,0,.26.26,0,0,1,.07.18.24.24,0,0,1-.07.18A.26.26,0,0,1,5.25,37Z"/><path class="cls-6" d="M2.75,32a.26.26,0,0,1-.17-.07.27.27,0,0,1-.08-.18.25.25,0,0,1,.08-.18.26.26,0,0,1,.35,0,.29.29,0,0,1,.07.18.24.24,0,0,1-.07.18A.29.29,0,0,1,2.75,32Z"/><path class="cls-6" d="M7.5,25a.25.25,0,0,1-.18-.43.26.26,0,0,1,.35,0,.23.23,0,0,1,.08.18.26.26,0,0,1-.07.18A.29.29,0,0,1,7.5,25Z"/><path class="cls-6" d="M3.25,20.5a.26.26,0,0,1-.17-.07A.25.25,0,0,1,3,20.25a.26.26,0,0,1,.43-.18.26.26,0,0,1,.07.18.24.24,0,0,1-.07.18A.26.26,0,0,1,3.25,20.5Z"/><path class="cls-6" d="M20.5,30.75a.26.26,0,0,1-.17-.07.24.24,0,0,1,0-.36.26.26,0,0,1,.35,0,.27.27,0,0,1,.07.18.23.23,0,0,1-.07.17A.25.25,0,0,1,20.5,30.75Z"/><path class="cls-6" d="M17.5,35.5a.28.28,0,0,1-.17-.07.25.25,0,0,1,0-.36.27.27,0,0,1,.36,0,.24.24,0,0,1,.07.18.22.22,0,0,1-.07.17A.25.25,0,0,1,17.5,35.5Z"/><path class="cls-6" d="M16,39a.23.23,0,0,1-.17-.07.24.24,0,0,1,0-.36.26.26,0,0,1,.35,0A.25.25,0,0,1,16,39Z"/><path class="cls-6" d="M12.75,41.25a.26.26,0,0,1-.17-.07A.25.25,0,0,1,12.5,41a.31.31,0,0,1,.07-.18.27.27,0,0,1,.36,0,.27.27,0,0,1,0,.36A.29.29,0,0,1,12.75,41.25Z"/><path class="cls-6" d="M12.75,46.5a.24.24,0,0,1-.17-.07.27.27,0,0,1-.08-.18.29.29,0,0,1,.07-.18.27.27,0,0,1,.36,0,.25.25,0,0,1-.18.43Z"/><path class="cls-6" d="M4,46.75a.26.26,0,0,1-.17-.07.25.25,0,0,1-.08-.18.31.31,0,0,1,.07-.18.26.26,0,0,1,.35,0,.23.23,0,0,1,.08.18.24.24,0,0,1-.07.18A.26.26,0,0,1,4,46.75Z"/><path class="cls-6" d="M5.75,48.5a.25.25,0,0,1-.18-.08.24.24,0,0,1-.07-.17.29.29,0,0,1,.07-.18.27.27,0,0,1,.36,0,.27.27,0,0,1,0,.36A.29.29,0,0,1,5.75,48.5Z"/><path class="cls-6" d="M11,50.5a.23.23,0,0,1-.17-.07.25.25,0,0,1-.08-.18.26.26,0,0,1,.07-.17.25.25,0,0,1,.36,0,.27.27,0,0,1,.07.18.24.24,0,0,1-.25.25Z"/><path class="cls-6" d="M11,54.5a.31.31,0,0,1-.18-.07.27.27,0,0,1,0-.36.27.27,0,0,1,.36,0,.27.27,0,0,1,0,.36A.29.29,0,0,1,11,54.5Z"/><path class="cls-6" d="M15.5,58.5a.28.28,0,0,1-.17-.07.25.25,0,0,1-.08-.18.29.29,0,0,1,.07-.18.27.27,0,0,1,.36,0,.27.27,0,0,1,0,.36A.29.29,0,0,1,15.5,58.5Z"/><path class="cls-6" d="M10,59.75a.29.29,0,0,1-.18-.07.31.31,0,0,1-.07-.18.29.29,0,0,1,.07-.18.27.27,0,0,1,.36,0,.24.24,0,0,1,.07.18.26.26,0,0,1-.07.18A.24.24,0,0,1,10,59.75Z"/><path class="cls-6" d="M6,63.5a.23.23,0,0,1-.17-.07.27.27,0,0,1-.08-.18.29.29,0,0,1,.07-.18.26.26,0,0,1,.36,0,.24.24,0,0,1,.07.18.23.23,0,0,1-.07.17A.22.22,0,0,1,6,63.5Z"/><path class="cls-6" d="M2.25,62a.23.23,0,0,1-.17-.07A.25.25,0,0,1,2,61.75a.29.29,0,0,1,.07-.18.26.26,0,0,1,.35,0,.23.23,0,0,1,.08.18.26.26,0,0,1-.07.18A.27.27,0,0,1,2.25,62Z"/><path class="cls-6" d="M7.25,67.75a.26.26,0,0,1-.17-.07A.27.27,0,0,1,7,67.5a.29.29,0,0,1,.07-.18.27.27,0,0,1,.36,0,.29.29,0,0,1,.07.18.21.21,0,0,1-.07.17A.22.22,0,0,1,7.25,67.75Z"/><path class="cls-6" d="M13.5,69.5a.23.23,0,0,1-.17-.07.27.27,0,0,1-.08-.18.29.29,0,0,1,.07-.18.27.27,0,0,1,.36,0,.26.26,0,0,1,.07.18.23.23,0,0,1-.07.17A.22.22,0,0,1,13.5,69.5Z"/><path class="cls-6" d="M13.5,65.75a.23.23,0,0,1-.17-.07.25.25,0,0,1-.08-.18.26.26,0,0,1,.07-.17.25.25,0,0,1,.36,0,.27.27,0,0,1,.07.18.26.26,0,0,1-.07.18A.24.24,0,0,1,13.5,65.75Z"/><path class="cls-6" d="M21.5,68.5a.23.23,0,0,1-.17-.07.24.24,0,0,1,0-.36.26.26,0,0,1,.35,0,.26.26,0,0,1,.07.18.23.23,0,0,1-.07.17A.22.22,0,0,1,21.5,68.5Z"/><path class="cls-6" d="M23,65.75a.23.23,0,0,1-.17-.07.25.25,0,0,1-.08-.18.28.28,0,0,1,.07-.17.25.25,0,0,1,.36,0,.26.26,0,0,1,.07.18.24.24,0,0,1-.25.25Z"/><path class="cls-6" d="M22.25,60a.23.23,0,0,1-.17-.07.25.25,0,0,1-.08-.18.28.28,0,0,1,.07-.17.25.25,0,0,1,.36,0,.26.26,0,0,1,.07.18.24.24,0,0,1-.07.18A.26.26,0,0,1,22.25,60Z"/><path class="cls-6" d="M24.25,57.5a.23.23,0,0,1-.17-.07.24.24,0,0,1,0-.36.26.26,0,0,1,.35,0,.27.27,0,0,1,0,.36A.24.24,0,0,1,24.25,57.5Z"/><path class="cls-6" d="M22,53.25a.23.23,0,0,1-.17-.07.25.25,0,0,1-.08-.18.24.24,0,0,1,.07-.17.25.25,0,0,1,.36,0,.27.27,0,0,1,.07.18.26.26,0,0,1-.07.18A.24.24,0,0,1,22,53.25Z"/><path class="cls-6" d="M26.25,47.75a.23.23,0,0,1-.17-.07.24.24,0,0,1,0-.36.26.26,0,0,1,.35,0,.27.27,0,0,1,0,.36A.24.24,0,0,1,26.25,47.75Z"/><path class="cls-6" d="M25.75,43.5a.23.23,0,0,1-.17-.07.25.25,0,0,1-.08-.18.29.29,0,0,1,.07-.18.25.25,0,0,1,.43.18.24.24,0,0,1-.25.25Z"/><path class="cls-6" d="M31.25,37.5a.28.28,0,0,1-.17-.07.27.27,0,0,1-.08-.18.26.26,0,0,1,.07-.17.25.25,0,0,1,.36,0,.27.27,0,0,1,.07.18.23.23,0,0,1-.07.17A.25.25,0,0,1,31.25,37.5Z"/><path class="cls-6" d="M32.25,31a.23.23,0,0,1-.17-.07.25.25,0,0,1-.08-.18.28.28,0,0,1,.07-.17.25.25,0,0,1,.36,0,.26.26,0,0,1,.07.18.29.29,0,0,1-.07.18A.24.24,0,0,1,32.25,31Z"/><path class="cls-6" d="M26,34a.23.23,0,0,1-.17-.07.24.24,0,0,1,0-.36.26.26,0,0,1,.35,0,.27.27,0,0,1,0,.36A.24.24,0,0,1,26,34Z"/><path class="cls-6" d="M34.25,27.75a.26.26,0,0,1-.17-.07.24.24,0,0,1,0-.36.26.26,0,0,1,.35,0,.27.27,0,0,1,.07.18.26.26,0,0,1-.07.18A.29.29,0,0,1,34.25,27.75Z"/><path class="cls-6" d="M37.25,28.5a.26.26,0,0,1-.17-.07.24.24,0,0,1,0-.36.25.25,0,0,1,.34,0,.23.23,0,0,1,.08.18.23.23,0,0,1-.07.17A.22.22,0,0,1,37.25,28.5Z"/><path class="cls-6" d="M41.75,25.75a.28.28,0,0,1-.17-.07.24.24,0,0,1,0-.36.26.26,0,0,1,.35,0,.27.27,0,0,1,.07.18.23.23,0,0,1-.07.17A.25.25,0,0,1,41.75,25.75Z"/><path class="cls-6" d="M43,20.75a.23.23,0,0,1-.17-.07.24.24,0,0,1,0-.36.26.26,0,0,1,.35,0,.25.25,0,0,1-.18.43Z"/><path class="cls-6" d="M36.5,19.25a.26.26,0,0,1-.17-.07.24.24,0,0,1,0-.36.27.27,0,0,1,.35,0,.27.27,0,0,1,0,.36A.24.24,0,0,1,36.5,19.25Z"/><path class="cls-6" d="M27.75,22.25a.28.28,0,0,1-.17-.07A.27.27,0,0,1,27.5,22a.26.26,0,0,1,.07-.17.25.25,0,0,1,.36,0,.27.27,0,0,1,0,.36A.29.29,0,0,1,27.75,22.25Z"/><path class="cls-6" d="M52,22a.26.26,0,0,1-.17-.07.24.24,0,0,1,0-.36.26.26,0,0,1,.35,0,.27.27,0,0,1,.07.18.23.23,0,0,1-.07.17A.25.25,0,0,1,52,22Z"/><path class="cls-6" d="M43.25,17.75a.26.26,0,0,1-.17-.07A.25.25,0,0,1,43,17.5a.31.31,0,0,1,.07-.18.25.25,0,0,1,.43.18.23.23,0,0,1-.07.17A.22.22,0,0,1,43.25,17.75Z"/><path class="cls-6" d="M50.5,18a.26.26,0,0,1-.17-.07.24.24,0,0,1,0-.36.26.26,0,0,1,.35,0,.27.27,0,0,1,.07.18.23.23,0,0,1-.07.17A.25.25,0,0,1,50.5,18Z"/><path class="cls-6" d="M59.5,17.25a.26.26,0,0,1-.17-.07.24.24,0,0,1,0-.36.26.26,0,0,1,.35,0,.27.27,0,0,1,0,.36A.29.29,0,0,1,59.5,17.25Z"/><path class="cls-6" d="M58.25,14a.26.26,0,0,1-.17-.07.24.24,0,0,1,0-.36.26.26,0,0,1,.35,0,.24.24,0,0,1,.07.18.26.26,0,0,1-.07.18A.29.29,0,0,1,58.25,14Z"/><path class="cls-6" d="M61.5,11a.23.23,0,0,1-.17-.07.25.25,0,0,1-.08-.18.23.23,0,0,1,.08-.18.26.26,0,0,1,.35,0,.27.27,0,0,1,0,.36A.24.24,0,0,1,61.5,11Z"/><path class="cls-6" d="M58.75,7.5a.23.23,0,0,1-.17-.07.24.24,0,0,1,0-.36.26.26,0,0,1,.35,0,.25.25,0,0,1-.18.43Z"/><path class="cls-6" d="M60,4.75a.26.26,0,0,1-.17-.07.25.25,0,0,1-.08-.18.29.29,0,0,1,.07-.18.27.27,0,0,1,.36,0,.24.24,0,0,1,.07.18.21.21,0,0,1-.07.17A.22.22,0,0,1,60,4.75Z"/><path class="cls-6" d="M67.5,6a.26.26,0,0,1-.17-.07.27.27,0,0,1-.08-.18.26.26,0,0,1,.43-.18.27.27,0,0,1,.07.18.23.23,0,0,1-.07.17A.25.25,0,0,1,67.5,6Z"/><path class="cls-6" d="M69.5,8a.28.28,0,0,1-.17-.07.25.25,0,0,1-.08-.18.31.31,0,0,1,.07-.18.27.27,0,0,1,.36,0,.26.26,0,0,1,.07.18A.24.24,0,0,1,69.5,8Z"/><path class="cls-6" d="M65.75,9.75a.26.26,0,0,1-.17-.07.24.24,0,0,1,0-.36.26.26,0,0,1,.35,0,.27.27,0,0,1,0,.36A.29.29,0,0,1,65.75,9.75Z"/><path class="cls-6" d="M61.75,16.5a.26.26,0,0,1-.17-.07.24.24,0,0,1,0-.36.26.26,0,0,1,.35,0,.26.26,0,0,1,.07.18.26.26,0,0,1-.25.25Z"/><path class="cls-6" d="M60.25,23.75a.28.28,0,0,1-.17-.07.24.24,0,0,1,0-.36.26.26,0,0,1,.35,0,.29.29,0,0,1,.07.18.24.24,0,0,1-.25.25Z"/><path class="cls-6" d="M55.5,23.75a.26.26,0,0,1-.17-.07.24.24,0,0,1,0-.36.26.26,0,0,1,.35,0,.27.27,0,0,1,0,.36A.29.29,0,0,1,55.5,23.75Z"/><path class="cls-6" d="M55.5,18.75a.26.26,0,0,1-.17-.07.24.24,0,0,1,0-.36.26.26,0,0,1,.35,0,.27.27,0,0,1,0,.36A.29.29,0,0,1,55.5,18.75Z"/><path class="cls-6" d="M65,25.75a.28.28,0,0,1-.17-.07.24.24,0,0,1,0-.36.26.26,0,0,1,.35,0,.26.26,0,0,1,.07.18.24.24,0,0,1-.25.25Z"/><path class="cls-6" d="M61.25,27a.26.26,0,0,1-.17-.07.24.24,0,0,1,0-.36.26.26,0,0,1,.35,0,.24.24,0,0,1,.07.18.24.24,0,0,1-.25.25Z"/><path class="cls-6" d="M57.75,30.75a.23.23,0,0,1-.17-.07.24.24,0,0,1,0-.36.26.26,0,0,1,.35,0,.24.24,0,0,1,.07.18.21.21,0,0,1-.07.17A.22.22,0,0,1,57.75,30.75Z"/><path class="cls-6" d="M52.75,32.75a.26.26,0,0,1-.17-.07.24.24,0,0,1,0-.36.26.26,0,0,1,.35,0,.26.26,0,0,1,.07.18.26.26,0,0,1-.25.25Z"/><path class="cls-6" d="M47.5,33.75a.28.28,0,0,1-.17-.07.24.24,0,0,1,0-.36.25.25,0,0,1,.34,0,.24.24,0,0,1,.08.18.23.23,0,0,1-.07.17A.23.23,0,0,1,47.5,33.75Z"/><path class="cls-6" d="M44.25,39.25a.28.28,0,0,1-.17-.07.24.24,0,0,1,0-.36.26.26,0,0,1,.35,0,.27.27,0,0,1,0,.36A.26.26,0,0,1,44.25,39.25Z"/><path class="cls-6" d="M34,41.5a.23.23,0,0,1-.17-.07.24.24,0,0,1,0-.36.26.26,0,0,1,.35,0,.27.27,0,0,1,0,.36A.29.29,0,0,1,34,41.5Z"/><path class="cls-6" d="M40.75,48a.23.23,0,0,1-.17-.07.24.24,0,0,1,0-.36.26.26,0,0,1,.35,0,.27.27,0,0,1,0,.36A.24.24,0,0,1,40.75,48Z"/><path class="cls-6" d="M45.75,52.25a.23.23,0,0,1-.17-.07.24.24,0,0,1,0-.36.26.26,0,0,1,.35,0A.24.24,0,0,1,46,52a.29.29,0,0,1-.07.18A.24.24,0,0,1,45.75,52.25Z"/><path class="cls-6" d="M46.5,56.75a.28.28,0,0,1-.17-.07.24.24,0,0,1,0-.36.26.26,0,0,1,.35,0,.26.26,0,0,1,.07.18.26.26,0,0,1-.25.25Z"/><path class="cls-6" d="M42,59.5a.23.23,0,0,1-.17-.07.24.24,0,0,1,0-.36.26.26,0,0,1,.35,0,.29.29,0,0,1,.07.18.24.24,0,0,1-.07.18A.26.26,0,0,1,42,59.5Z"/><path class="cls-6" d="M40,62.75a.28.28,0,0,1-.17-.07.25.25,0,0,1-.08-.18.23.23,0,0,1,.08-.18.26.26,0,0,1,.35,0,.24.24,0,0,1,.07.18.26.26,0,0,1-.07.18A.29.29,0,0,1,40,62.75Z"/><path class="cls-6" d="M36,62.75a.23.23,0,0,1-.17-.07.24.24,0,0,1,0-.36.26.26,0,0,1,.35,0,.27.27,0,0,1,.07.18.26.26,0,0,1-.07.18A.29.29,0,0,1,36,62.75Z"/><path class="cls-6" d="M36.5,52.75a.24.24,0,0,1-.17-.07.24.24,0,0,1,0-.36.26.26,0,0,1,.35,0,.27.27,0,0,1,.07.18.23.23,0,0,1-.07.17A.25.25,0,0,1,36.5,52.75Z"/><path class="cls-6" d="M30,63.5a.26.26,0,0,1-.17-.07.24.24,0,0,1,0-.36.26.26,0,0,1,.35,0,.26.26,0,0,1,.07.18.22.22,0,0,1-.07.17A.25.25,0,0,1,30,63.5Z"/><path class="cls-6" d="M31.5,68.5a.25.25,0,0,1-.18-.08.24.24,0,0,1-.07-.17.23.23,0,0,1,.08-.18.26.26,0,0,1,.34,0,.22.22,0,0,1,.08.18.26.26,0,0,1-.07.18A.29.29,0,0,1,31.5,68.5Z"/><path class="cls-6" d="M37,71a.23.23,0,0,1-.17-.07.24.24,0,0,1,0-.36.26.26,0,0,1,.35,0A.25.25,0,0,1,37,71Z"/><path class="cls-6" d="M58.75,57a.23.23,0,0,1-.17-.07.24.24,0,0,1,0-.36.26.26,0,0,1,.35,0,.25.25,0,0,1-.18.43Z"/><path class="cls-6" d="M63,57a.28.28,0,0,1-.17-.07.24.24,0,0,1,0-.36.26.26,0,0,1,.35,0,.24.24,0,0,1,.07.18.21.21,0,0,1-.07.17A.22.22,0,0,1,63,57Z"/><path class="cls-6" d="M60,50.75a.28.28,0,0,1-.17-.07.25.25,0,0,1-.08-.18.23.23,0,0,1,.08-.18.26.26,0,0,1,.35,0,.29.29,0,0,1,.07.18.24.24,0,0,1-.07.18A.29.29,0,0,1,60,50.75Z"/><path class="cls-6" d="M54.5,50.5a.24.24,0,0,1-.17-.07.27.27,0,0,1-.08-.18.26.26,0,0,1,.43-.18.27.27,0,0,1,.07.18.23.23,0,0,1-.07.17A.25.25,0,0,1,54.5,50.5Z"/><path class="cls-6" d="M59.25,44.25a.26.26,0,0,1-.17-.07A.27.27,0,0,1,59,44a.26.26,0,0,1,.43-.18.27.27,0,0,1,.07.18.26.26,0,0,1-.25.25Z"/><path class="cls-6" d="M54.75,41.75a.26.26,0,0,1-.17-.07.24.24,0,0,1,0-.36.26.26,0,0,1,.35,0,.27.27,0,0,1,0,.36A.29.29,0,0,1,54.75,41.75Z"/><path class="cls-6" d="M55.75,35.5a.23.23,0,0,1-.17-.07.24.24,0,0,1,0-.36.26.26,0,0,1,.35,0,.25.25,0,0,1-.18.43Z"/><path class="cls-6" d="M62.5,42.25a.26.26,0,0,1-.17-.07.24.24,0,0,1,0-.36.26.26,0,0,1,.34,0,.23.23,0,0,1,.08.18.24.24,0,0,1-.25.25Z"/><path class="cls-6" d="M67,47.5a.26.26,0,0,1-.17-.07.24.24,0,0,1,0-.36.27.27,0,0,1,.35,0,.24.24,0,0,1,.07.18.29.29,0,0,1-.07.18A.24.24,0,0,1,67,47.5Z"/><path class="cls-6" d="M69.5,54.25a.26.26,0,0,1-.17-.07.24.24,0,0,1,0-.36.26.26,0,0,1,.35,0,.27.27,0,0,1,0,.36A.29.29,0,0,1,69.5,54.25Z"/><path class="cls-6" d="M63.5,61.75a.26.26,0,0,1-.17-.07.27.27,0,0,1-.08-.18.25.25,0,0,1,.08-.18.26.26,0,0,1,.35,0,.26.26,0,0,1,.07.18.23.23,0,0,1-.07.17A.22.22,0,0,1,63.5,61.75Z"/><path class="cls-6" d="M69.25,63.5a.23.23,0,0,1-.17-.07.24.24,0,0,1,0-.36.26.26,0,0,1,.35,0,.26.26,0,0,1,.07.18.26.26,0,0,1-.25.25Z"/><path class="cls-6" d="M64.75,65.5a.24.24,0,0,1-.17-.07.27.27,0,0,1-.08-.18.28.28,0,0,1,.07-.17.26.26,0,0,1,.36,0,.27.27,0,0,1,.07.18.26.26,0,0,1-.25.25Z"/><path class="cls-6" d="M65.75,68.25a.26.26,0,0,1-.17-.07.24.24,0,0,1,0-.36.26.26,0,0,1,.35,0A.26.26,0,0,1,66,68a.24.24,0,0,1-.07.18A.29.29,0,0,1,65.75,68.25Z"/><path class="cls-6" d="M69.25,70.5a.26.26,0,0,1-.17-.07.27.27,0,0,1-.08-.18.25.25,0,0,1,.08-.18.26.26,0,0,1,.35,0,.24.24,0,0,1,.07.18.26.26,0,0,1-.25.25Z"/><path class="cls-6" d="M62.5,70.25a.26.26,0,0,1-.17-.07.24.24,0,0,1,0-.36.25.25,0,0,1,.34,0,.23.23,0,0,1,.08.18.26.26,0,0,1-.07.18A.27.27,0,0,1,62.5,70.25Z"/><path class="cls-6" d="M60.75,65.75a.26.26,0,0,1-.17-.07.24.24,0,0,1,0-.36.26.26,0,0,1,.35,0,.26.26,0,0,1,.07.18.26.26,0,0,1-.25.25Z"/><path class="cls-6" d="M52.75,69.75a.26.26,0,0,1-.17-.07.24.24,0,0,1,0-.36.26.26,0,0,1,.35,0,.26.26,0,0,1,.07.18.26.26,0,0,1-.25.25Z"/><path class="cls-6" d="M44.75,66.5a.24.24,0,0,1-.17-.07.24.24,0,0,1,0-.36.26.26,0,0,1,.35,0,.24.24,0,0,1,.07.18.22.22,0,0,1-.07.17A.25.25,0,0,1,44.75,66.5Z"/><path class="cls-6" d="M44.5,71.25a.28.28,0,0,1-.17-.07.24.24,0,0,1,0-.36.26.26,0,0,1,.35,0,.27.27,0,0,1,0,.36A.26.26,0,0,1,44.5,71.25Z"/><path class="cls-6" d="M28.5,71.25a.25.25,0,0,1-.18-.08.24.24,0,0,1-.07-.17.25.25,0,0,1,.08-.18.26.26,0,0,1,.35,0,.27.27,0,0,1,0,.36A.27.27,0,0,1,28.5,71.25Z"/><path class="cls-6" d="M.75,29.5a.26.26,0,0,1-.17-.07.27.27,0,0,1-.08-.18.25.25,0,0,1,.08-.18.26.26,0,0,1,.35,0,.29.29,0,0,1,.07.18.24.24,0,0,1-.25.25Z"/><path class="cls-6" d="M24.5,1a.23.23,0,0,1-.17-.07.27.27,0,0,1-.08-.18.29.29,0,0,1,.07-.18.27.27,0,0,1,.36,0,.29.29,0,0,1,.07.18.21.21,0,0,1-.07.17A.22.22,0,0,1,24.5,1Z"/><path class="cls-6" d="M13.25,5a.29.29,0,0,1-.18-.07A.31.31,0,0,1,13,4.75a.29.29,0,0,1,.07-.18.27.27,0,0,1,.36,0,.24.24,0,0,1,.07.18.26.26,0,0,1-.25.25Z"/><path class="cls-6" d="M71,35.25a.26.26,0,0,1-.17-.07.24.24,0,0,1,0-.36.27.27,0,0,1,.35,0,.25.25,0,0,1-.18.43Z"/></pattern><clipPath id="clip-path"><path class="cls-1" d="M395.56,232.35c3.51-4.63,9.38-7.53,11.46-13s-.38-11.43-2.5-16.85-3.83-11.91-.6-16.76,10.3-6.17,13-11.31c2.19-4.17.7-9.36,2-13.88a11.38,11.38,0,1,1,21.77,6.66c-1.57,5-6.2,8.17-10.34,11.31s-8.4,7.19-8.58,12.38c-.17,5,3.53,9.48,3.43,14.47-.12,5.45-4.62,9.66-8.74,13.22s-8.56,7.9-8.47,13.35c.05,3.33,1.84,6.4,2.22,9.71.66,5.8-6.91,16.22-13.61,12.62S391.92,237.16,395.56,232.35Z"/></clipPath><clipPath id="clip-path-2"><path class="cls-2" d="M417.81,289.22a29.17,29.17,0,0,1,9.26-4.5c2.91-4.72,5.74-9.81,8.41-15.2l.79-1.62c-3-.45-6.07-1-9.08-1.65A37.24,37.24,0,0,1,439.42,261,147.27,147.27,0,0,0,449,231.46l-8.74-.17,9.56-4.61c1.69-12,.13-20.67-5.06-23.24-6.25-3.09-16.35,3.39-26.78,15.88a69.89,69.89,0,0,0,3,7.88l-5-5.4a156.87,156.87,0,0,0-13.2,19.88q1.25,3.65,2.16,7.4L400.43,246q-1.29,2.44-2.54,5a177.42,177.42,0,0,0-9.58,23.22q2,4.91,4,9.82l-6.13-2.68c-4.93,18.23-4.43,32.32,2.44,35.72,7.82,3.87,21.66-7.24,34.64-26.36Z"/></clipPath><clipPath id="clip-path-3"><path class="cls-2" d="M167.56,279a42.67,42.67,0,0,1,0-11.57c-2.57-6.69-5.46-13.67-8.66-20.8-.31-.71-.63-1.42-.95-2.12a73.68,73.68,0,0,1-4.71,5.71,50.61,50.61,0,0,1,.55-14.6,326.12,326.12,0,0,0-19.39-35.06c-1.14,2.27-2.28,4.55-3.43,6.82q0-6,0-11.91c-8.68-12.44-16-19.25-20-17.48-4.75,2.13-3.51,16.19,2.28,36.1A80.09,80.09,0,0,0,120.5,219l-6.07-1c2.72,8.82,6.26,18.63,10.5,29,2.2,1.6,4.4,3.3,6.57,5.13l-4.12.72c.94,2.19,1.9,4.4,2.9,6.63,4.72,10.54,9.63,20.39,14.45,29.16l9.14,5.92-4.39,2.41C161.8,317.71,173,330.37,178.18,328c5.95-2.66,2.52-24-7.47-52.1Z"/></clipPath><clipPath id="clip-path-4"><rect class="cls-3" x="69.81" y="310.78" width="103.03" height="69.92" rx="6.88" transform="translate(-68.01 32.04) rotate(-11.78)"/></clipPath><clipPath id="clip-path-5"><path class="cls-4" d="M203,229.6h28.33a28.27,28.27,0,0,1,28.27,28.27v24.76a8.2,8.2,0,0,1-8.2,8.2H183a8.2,8.2,0,0,1-8.2-8.2V257.87A28.27,28.27,0,0,1,203,229.6Z"/></clipPath><clipPath id="clip-path-6"><rect class="cls-3" x="105.35" y="356.84" width="103.03" height="69.92" rx="6.88" transform="translate(-149.05 101.06) rotate(-24.64)"/></clipPath><clipPath id="clip-path-7"><path class="cls-4" d="M86.39,260.16l-11.61-4.07a2,2,0,0,1-1-3l5.67-8.3a2,2,0,0,1,3.43.26l6,12.37a2,2,0,0,1-1.22,2.77h0A2,2,0,0,1,86.39,260.16Z"/></clipPath><clipPath id="clip-path-8"><path class="cls-4" d="M88.26,257.86l.35-9.87a1.59,1.59,0,0,1,2.06-1.47l7.71,2.36a1.6,1.6,0,0,1,.62,2.7l-8,7.51a1.6,1.6,0,0,1-2.41-.27h0A1.64,1.64,0,0,1,88.26,257.86Z"/></clipPath></defs><g class="cls-7"><g id="Layer_2" data-name="Layer 2"><g id="OBJECTS"><path class="cls-8" d="M453.4,260.41a54.9,54.9,0,0,0-16.23-14.29c-25.51-14.6-56.78-22.37-77.12-43.89-14.63-15.48-20.51-35.65-22.85-55.29C335,128.15,332.35,111.1,324.87,93,310,57,278.44,26.35,239.63,11.17c-48.74-19.07-107.06-13.29-149,14S24,100.18,26.32,148.11s31,94.83,74.39,123c10.36,6.74,21.63,12.58,30.15,21.22,20.83,21.1,5.08,41.1-3.48,62.45-9.4,23.46-6.72,55.11,2.77,79.08s28.27,45,51.95,58.43c37.44,21.3,84.67,24.47,126,13.55,21-5.55,41.68-15.23,55.65-30.76,15.73-17.48,13.07-41.2,25.55-60.34,9.87-15.14,26.51-25.22,40.44-37.33,19.49-16.94,34.37-39.2,37.5-64C469.42,296.08,465.06,275.54,453.4,260.41Z"/><path class="cls-9" d="M208.24,34.75a55,55,0,0,0-11,18.59c-9.64,27.77-11.5,59.94-28.89,83.9-12.51,17.24-31.25,26.74-50.13,32.67-18,5.67-34.32,11.38-50.69,22.07-32.64,21.31-57,58-64.72,98.9C-7,342.3,9.49,398.55,44.07,434.77s86,51.56,132.67,40.46,87.48-48,107.19-95.84c4.7-11.42,8.36-23.58,15.28-33.55,16.89-24.37,39.45-12.58,62-8.11,24.8,4.91,55.4-3.57,77.21-17.33s39-36.09,47.83-61.84c14-40.73,8.41-87.74-9.95-126.32-9.33-19.6-22.66-38.15-40.5-49-20.09-12.24-42.91-5.24-64-14-16.7-6.9-29.67-21.39-44.16-32.85-20.24-16-44.87-26.54-69.77-25C240.35,12.42,221,20.5,208.24,34.75Z"/><path class="cls-1" d="M395.56,232.35c3.51-4.63,9.38-7.53,11.46-13s-.38-11.43-2.5-16.85-3.83-11.91-.6-16.76,10.3-6.17,13-11.31c2.19-4.17.7-9.36,2-13.88a11.38,11.38,0,1,1,21.77,6.66c-1.57,5-6.2,8.17-10.34,11.31s-8.4,7.19-8.58,12.38c-.17,5,3.53,9.48,3.43,14.47-.12,5.45-4.62,9.66-8.74,13.22s-8.56,7.9-8.47,13.35c.05,3.33,1.84,6.4,2.22,9.71.66,5.8-6.91,16.22-13.61,12.62S391.92,237.16,395.56,232.35Z"/><g class="cls-10"><path class="cls-11" d="M443.76,162A40.19,40.19,0,0,0,432,164c3-3.56,5.61-7.39,6.84-11.88a20.68,20.68,0,0,0,.49-2.34c.1-.6-.83-.86-.92-.25-1,6.64-5.37,11.92-9.67,16.8s-9.15,10-11.38,16.39a32.23,32.23,0,0,0-1.35,5.81c-2-3.87-4.19-7.68-7.48-10.58-.46-.41-1.14.27-.68.68,3.52,3.1,5.78,7.26,7.86,11.4a.38.38,0,0,0,.09.12c-.2,1.83-.33,3.67-.46,5.49a52.72,52.72,0,0,1-1.85,11.87c-4.24-3.91-9.59-6.25-14.85-8.47-.56-.24-1,.59-.48.82,5.32,2.26,10.79,4.59,15,8.65v0c-2.75,8-7.94,14.8-11,22.61a52.1,52.1,0,0,0-3.47,15.09,72.3,72.3,0,0,0-6.82-11.49c-.36-.49-1.19,0-.83.49a72,72,0,0,1,7.5,12.87s0,0,0,.06a51.65,51.65,0,0,0,.36,8.79c.13,1,.3,2.06.49,3.09.12.6,1,.35.92-.25a51.57,51.57,0,0,1-.43-16.21c3.45-3.66,8.28-5.44,12.9-7.1.58-.21.33-1.13-.25-.92-4.38,1.57-8.92,3.27-12.39,6.45a51.38,51.38,0,0,1,2-8.2,63.21,63.21,0,0,1,4.07-9.08.46.46,0,0,0,.27-.12,6.48,6.48,0,0,1,2.58-1.39c1.06-.35,2.13-.65,3.21-.92A58.3,58.3,0,0,1,419,221c.61-.08.35-1-.25-.92a56.16,56.16,0,0,0-7.15,1.42,20.22,20.22,0,0,0-4.41,1.47,124.74,124.74,0,0,0,6-11.81,39.6,39.6,0,0,0,2.59-9.87,29.88,29.88,0,0,1,9.08-6.64c.56-.27.07-1.09-.48-.83a30.69,30.69,0,0,0-8.41,5.9l.09-.85c.39-4.38.45-8.83,1.44-13.13a25.26,25.26,0,0,1,2.16-5.81c2.14-1.31,4.93-1.55,7.37-1.87a65.66,65.66,0,0,1,8.05-.51.48.48,0,0,0,0-1,66.7,66.7,0,0,0-8.47.57,24.71,24.71,0,0,0-6.16,1.31,64.94,64.94,0,0,1,7.88-10.24c.82-.92,1.65-1.86,2.47-2.81a39.68,39.68,0,0,1,13-2.48A.48.48,0,0,0,443.76,162Z"/></g><path class="cls-2" d="M417.81,289.22a29.17,29.17,0,0,1,9.26-4.5c2.91-4.72,5.74-9.81,8.41-15.2l.79-1.62c-3-.45-6.07-1-9.08-1.65A37.24,37.24,0,0,1,439.42,261,147.27,147.27,0,0,0,449,231.46l-8.74-.17,9.56-4.61c1.69-12,.13-20.67-5.06-23.24-6.25-3.09-16.35,3.39-26.78,15.88a69.89,69.89,0,0,0,3,7.88l-5-5.4a156.87,156.87,0,0,0-13.2,19.88q1.25,3.65,2.16,7.4L400.43,246q-1.29,2.44-2.54,5a177.42,177.42,0,0,0-9.58,23.22q2,4.91,4,9.82l-6.13-2.68c-4.93,18.23-4.43,32.32,2.44,35.72,7.82,3.87,21.66-7.24,34.64-26.36Z"/><g class="cls-12"><path class="cls-13" d="M425.18,252.86a23.09,23.09,0,0,1-4.5,9.3c-3.68,4.37-9.29,6.78-12.93,11.18-4,4.87-5.09,11.44-6.64,17.56s-4.54,9.54-8,14.58c-3.26,4.79-5.14,11.2-7.38,16.55,21.52-5.95,39.34-22,50.63-41.32S453,239.17,455.24,217c.37-3.56.66-7.2-.17-10.68-1.05-4.37-4.22-9.73-8.08-5.65-5,5.28-6.16,13.15-10.77,18.43-5.44,6.24-8.1,11.44-9.05,19.95C426.66,243.58,426.33,248.41,425.18,252.86Z"/></g><path class="cls-2" d="M167.56,279a42.67,42.67,0,0,1,0-11.57c-2.57-6.69-5.46-13.67-8.66-20.8-.31-.71-.63-1.42-.95-2.12a73.68,73.68,0,0,1-4.71,5.71,50.61,50.61,0,0,1,.55-14.6,326.12,326.12,0,0,0-19.39-35.06c-1.14,2.27-2.28,4.55-3.43,6.82q0-6,0-11.91c-8.68-12.44-16-19.25-20-17.48-4.75,2.13-3.51,16.19,2.28,36.1A80.09,80.09,0,0,0,120.5,219l-6.07-1c2.72,8.82,6.26,18.63,10.5,29,2.2,1.6,4.4,3.3,6.57,5.13l-4.12.72c.94,2.19,1.9,4.4,2.9,6.63,4.72,10.54,9.63,20.39,14.45,29.16l9.14,5.92-4.39,2.41C161.8,317.71,173,330.37,178.18,328c5.95-2.66,2.52-24-7.47-52.1Z"/><g class="cls-14"><path class="cls-13" d="M142.05,239.37a51.57,51.57,0,0,1,5.54,12.22c2,7,1.78,13.7,3.84,20.69,2.27,7.73,7,14.66,11.16,21.57s5.71,12.47,8.34,19.88c2.5,7,6.78,14.48,10.1,21.23,3.47-22.72-2.35-51.87-13.09-78.74s-26.09-51.73-42.51-74.14c-2.63-3.59-5.35-7.19-8.37-9.75-3.79-3.21-9.16-5.65-7.43,1.21,2.23,8.89,7.9,17.11,10.28,25.69,2.8,10.13,5.84,17.07,12.11,25.71C135.39,229.6,139,234.33,142.05,239.37Z"/></g><path class="cls-2" d="M444.88,292.48l.46.12c3.07.9,5.19,3.2,8.46,3.86A16.09,16.09,0,0,0,464,295.24a1,1,0,0,0,0-1.67c-2.06-1.39-4.22-3.09-6.66-3.74-1.29-.35-5.79-1.64-7-.9a46.42,46.42,0,0,1,5.88-3.31,21.14,21.14,0,0,0,4.15-2.51,20.82,20.82,0,0,0,6.06-7.37.91.91,0,0,0-1-1.31A28.57,28.57,0,0,0,456,278.9a13.76,13.76,0,0,0-3.15,3.44c-1.9,3-2.19,5.34-5.64,7a24.78,24.78,0,0,1-4.55,1.43c-1,.25-3.21.19-4,.7a19,19,0,0,0,5.95-6.64,41.14,41.14,0,0,0,3.7-9.86,1.09,1.09,0,0,0-1.58-1.21,28.46,28.46,0,0,0-8.67,8.43,20,20,0,0,0-2.45,4.94c-.36,1.19,0,3.28-.95,4.2s-4.2.56-5.56.64a44.07,44.07,0,0,0-4.92.58l.76-.64a29.14,29.14,0,0,0,3.5-3.61,29.48,29.48,0,0,0,4.93-8.78,26.81,26.81,0,0,0,1.28-5.59c.09-.74-.85-1.13-1.41-.82a26.85,26.85,0,0,0-12.73,15.73c-.55,1.87-.94,4.27-2.56,5.66s-4.25,2.19-6.12,3.64a43.42,43.42,0,0,0,2.34-4.86,22.32,22.32,0,0,0,1.52-5.74,23.06,23.06,0,0,0-.13-5.63,64,64,0,0,0-1.26-6.28,1.07,1.07,0,0,0-1.77-.48c-3.09,2.64-4.9,6.4-6,10.25A43.15,43.15,0,0,0,404.91,297a31.29,31.29,0,0,0,.67,6.54.52.52,0,0,0,.21.33c-1,1.09-1.87,2.21-2.76,3.34-.73.92-1.45,1.86-2.16,2.8l-1.07,1.45a6,6,0,0,0-.47.65,2.46,2.46,0,0,0-.18,1c0,.7.72.94,1.24.73a2.62,2.62,0,0,0,1.24-1l.95-1.29c.6-.81,1.2-1.61,1.82-2.4,1.15-1.49,1.78-3.59,3.75-4.12s3.76.47,5.43,1.08a26.41,26.41,0,0,0,5.74,1.32,41.5,41.5,0,0,0,12.23-.57c1.16-.21,2.31-.46,3.46-.72s2.35-.63,3.54-.91a1,1,0,0,0,.24-1.87,31.71,31.71,0,0,0-25.43-3.75,29,29,0,0,1,4.25-2.9,24.1,24.1,0,0,1,8.25-3c3.75-.49,5.73,1.42,8.73,3.47a37.14,37.14,0,0,0,8.35,4.7c3,1.07,6.39.79,9.55,1.24a1.13,1.13,0,0,0,1.08-1.88,19.92,19.92,0,0,0-9-6c-2.7-.89-7.36-2.26-10.2-1.69C437.75,292.88,441.39,291.66,444.88,292.48Z"/><rect class="cls-11" x="69.81" y="310.78" width="103.03" height="69.92" rx="6.88" transform="translate(-68.01 32.04) rotate(-11.78)"/><g class="cls-15"><path class="cls-16" d="M179.22,349,71.5,371.49a7.54,7.54,0,0,1-8.9-5.83h0a7.54,7.54,0,0,1,5.83-8.89l107.72-22.46a7.54,7.54,0,0,1,8.9,5.83h0A7.54,7.54,0,0,1,179.22,349Z"/></g><rect class="cls-17" x="69.81" y="310.78" width="103.03" height="69.92" rx="6.88" transform="translate(-68.01 32.04) rotate(-11.78)"/><rect class="cls-2" x="110.85" y="334.9" width="41.02" height="2.51" transform="translate(-65.85 33.89) rotate(-11.78)"/><rect class="cls-2" x="109.64" y="328.5" width="53.02" height="2.55" transform="translate(-64.44 34.73) rotate(-11.78)"/><rect class="cls-2" x="77.4" y="336.01" width="23.56" height="11.35" rx="0.74" transform="translate(-67.86 25.39) rotate(-11.78)"/><circle class="cls-4" cx="138.43" cy="315.92" r="3.98"/><path class="cls-18" d="M148.56,314.63a4,4,0,1,1-4-4A4,4,0,0,1,148.56,314.63Z"/><rect class="cls-16" x="260.48" y="78.72" width="141.99" height="239.92" rx="8.22"/><rect class="cls-11" x="267.9" y="91.26" width="127.14" height="218.91" rx="7.43"/><rect class="cls-16" x="296.35" y="86.78" width="70.25" height="12.89" rx="4.42"/><path class="cls-2" d="M312.68,282.74a3.29,3.29,0,1,1-3.29-3.28A3.29,3.29,0,0,1,312.68,282.74Z"/><path class="cls-2" d="M323.45,282.74a3.29,3.29,0,1,1-3.29-3.28A3.29,3.29,0,0,1,323.45,282.74Z"/><circle class="cls-2" cx="330.93" cy="282.74" r="3.29"/><path class="cls-19" d="M345,282.74a3.29,3.29,0,1,1-3.29-3.28A3.29,3.29,0,0,1,345,282.74Z"/><circle class="cls-2" cx="352.48" cy="282.74" r="3.29"/><rect class="cls-2" x="295.81" y="120.79" width="70.25" height="2.54"/><rect class="cls-2" x="295.81" y="128.43" width="41.11" height="2.54"/><rect class="cls-2" x="295.81" y="135.34" width="26.6" height="2.54"/><polygon class="cls-2" points="388.49 250.31 274.45 250.31 274.45 251.58 388.49 251.58 388.49 250.31 388.49 250.31"/><path class="cls-2" d="M370.2,205.8c0,2.81-16.54,5.08-36.93,5.08s-36.92-2.27-36.92-5.08,16.53-5.08,36.92-5.08S370.2,203,370.2,205.8Z"/><path class="cls-2" d="M345,236.72H321.12c8.44-8.91,11.3-20.06,9.81-33h3.29Q332.84,224.27,345,236.72Z"/><path class="cls-4" d="M352.47,190.3v13.46H318.79V185.38Z"/><rect class="cls-20" x="318.79" y="193.32" width="33.69" height="5.36"/><path class="cls-4" d="M322.23,185.36a1.79,1.79,0,1,1-2-1.58A1.79,1.79,0,0,1,322.23,185.36Z"/><path class="cls-4" d="M325.89,185.87a1.79,1.79,0,1,1-2-1.57A1.79,1.79,0,0,1,325.89,185.87Z"/><path class="cls-4" d="M329.56,186.39a1.79,1.79,0,1,1-2-1.58A1.8,1.8,0,0,1,329.56,186.39Z"/><path class="cls-4" d="M333.22,186.9a1.79,1.79,0,1,1-2-1.58A1.79,1.79,0,0,1,333.22,186.9Z"/><path class="cls-4" d="M336.88,187.41a1.79,1.79,0,1,1-2-1.57A1.8,1.8,0,0,1,336.88,187.41Z"/><path class="cls-4" d="M340.54,187.93a1.79,1.79,0,1,1-2-1.58A1.78,1.78,0,0,1,340.54,187.93Z"/><path class="cls-4" d="M344.21,188.44a1.79,1.79,0,1,1-2-1.57A1.8,1.8,0,0,1,344.21,188.44Z"/><path class="cls-4" d="M347.87,189a1.79,1.79,0,1,1-2-1.58A1.79,1.79,0,0,1,347.87,189Z"/><path class="cls-4" d="M351.45,189.72a1.79,1.79,0,1,1-2-1.58A1.79,1.79,0,0,1,351.45,189.72Z"/><path class="cls-21" d="M297.34,203.76a35.72,35.72,0,0,1,71.43,0"/><path class="cls-22" d="M335.35,164.78c0,1.89-1,3.43-2.29,3.43s-2.3-1.54-2.3-3.43,1-3.42,2.3-3.42S335.35,162.89,335.35,164.78Z"/><rect class="cls-18" x="145.92" y="130.35" width="141.99" height="239.92" rx="8.22"/><rect class="cls-11" x="153.34" y="142.89" width="127.14" height="218.91" rx="7.43"/><rect class="cls-18" x="181.79" y="138.41" width="70.25" height="12.89" rx="4.42"/><path class="cls-4" d="M203,229.6h28.33a28.27,28.27,0,0,1,28.27,28.27v24.76a8.2,8.2,0,0,1-8.2,8.2H183a8.2,8.2,0,0,1-8.2-8.2V257.87A28.27,28.27,0,0,1,203,229.6Z"/><g class="cls-23"><path class="cls-24" d="M168.73,252.66c-1.52,3.66-2.62,8.23-.11,11.3,2.33,2.85,6.85,2.91,10.15,1.25s5.72-4.58,8.28-7.23a65.5,65.5,0,0,1,29.84-17.59c5.54-1.5,11.86-2.62,15.18-7.31,12.24-17.31-19.47-24.75-30.84-19.54C187.37,219.89,174.28,239.26,168.73,252.66Z"/></g><path class="cls-20" d="M208.25,240.3a2.79,2.79,0,1,1-2.79-2.8A2.79,2.79,0,0,1,208.25,240.3Z"/><path class="cls-20" d="M232.24,240.1a2.79,2.79,0,1,1-2.79-2.8A2.79,2.79,0,0,1,232.24,240.1Z"/><path class="cls-25" d="M205.46,232.58c0-13.64,5.37-24.71,12-24.71s12,11.07,12,24.71"/><path class="cls-2" d="M198.66,335.13a3.29,3.29,0,1,1-3.29-3.28A3.29,3.29,0,0,1,198.66,335.13Z"/><path class="cls-2" d="M206.14,332.53a2.61,2.61,0,1,1-2.6,2.6,2.61,2.61,0,0,1,2.6-2.6m0-.68a3.29,3.29,0,1,0,3.29,3.28,3.28,3.28,0,0,0-3.29-3.28Z"/><path class="cls-2" d="M220.2,335.13a3.29,3.29,0,1,1-3.28-3.28A3.28,3.28,0,0,1,220.2,335.13Z"/><path class="cls-2" d="M231,335.13a3.29,3.29,0,1,1-3.28-3.28A3.28,3.28,0,0,1,231,335.13Z"/><path class="cls-2" d="M241.75,335.13a3.29,3.29,0,1,1-3.29-3.28A3.29,3.29,0,0,1,241.75,335.13Z"/><rect class="cls-2" x="181.79" y="173.18" width="70.25" height="2.54"/><rect class="cls-2" x="181.79" y="180.82" width="70.25" height="2.54"/><rect class="cls-2" x="181.79" y="188.45" width="49.18" height="2.54"/><polygon class="cls-2" points="274.48 302.7 160.43 302.7 160.43 303.97 274.48 303.97 274.48 302.7 274.48 302.7"/><rect class="cls-18" x="302.12" y="298.75" width="56.55" height="76.61"/><path class="cls-26" d="M322,313.62V281.75a8.45,8.45,0,0,1,8.42-8.42h0a8.45,8.45,0,0,1,8.42,8.42v31.87"/><rect class="cls-16" x="351.99" y="334.97" width="52.85" height="71.6"/><path class="cls-27" d="M370.54,350.16V320.38a7.9,7.9,0,0,1,7.88-7.87h0a7.9,7.9,0,0,1,7.87,7.87v29.78"/><rect class="cls-11" x="105.35" y="356.84" width="103.03" height="69.92" rx="6.88" transform="translate(-149.05 101.06) rotate(-24.64)"/><g class="cls-28"><path class="cls-4" d="M214,382.13,114,428a7.54,7.54,0,0,1-10-3.7h0a7.53,7.53,0,0,1,3.7-10l100-45.87a7.53,7.53,0,0,1,10,3.7h0A7.53,7.53,0,0,1,214,382.13Z"/></g><rect class="cls-17" x="105.35" y="356.84" width="103.03" height="69.92" rx="6.88" transform="translate(-149.05 101.06) rotate(-24.64)"/><rect class="cls-2" x="109.38" y="385.69" width="41.02" height="2.52" transform="translate(-149.49 89.37) rotate(-24.64)"/><rect class="cls-2" x="106.67" y="379.8" width="41.02" height="2.51" transform="translate(-147.27 87.71) rotate(-24.64)"/><rect class="cls-2" x="166.06" y="355.24" width="23.56" height="11.35" rx="0.74" transform="translate(-134.27 106.99) rotate(-24.64)"/><rect class="cls-16" x="76.21" y="259.98" width="36.33" height="36.33" transform="translate(-76.88 39.52) rotate(-16.92)"/><rect class="cls-18" x="66.52" y="259.75" width="46.24" height="7.95" transform="translate(-72.88 37.51) rotate(-16.92)"/><rect class="cls-4" x="92.32" y="266.48" width="5.95" height="29.36" transform="translate(-77.72 39.92) rotate(-16.92)"/><path class="cls-4" d="M86.39,260.16l-11.61-4.07a2,2,0,0,1-1-3l5.67-8.3a2,2,0,0,1,3.43.26l6,12.37a2,2,0,0,1-1.22,2.77h0A2,2,0,0,1,86.39,260.16Z"/><g class="cls-29"><path class="cls-30" d="M89.42,259.7c-.35-.3-.21-3.52-.3-4.14a27.06,27.06,0,0,0-1-4.16,26.24,26.24,0,0,0-3.89-7.59c-.59-.8-1.52-2.21-2.71-1.87s-1.25,1.68-1.15,2.58c.28,2.63,1.73,5.5,3,7.76A28.56,28.56,0,0,0,89.42,259.7Z"/></g><path class="cls-4" d="M88.26,257.86l.35-9.87a1.59,1.59,0,0,1,2.06-1.47l7.71,2.36a1.6,1.6,0,0,1,.62,2.7l-8,7.51a1.6,1.6,0,0,1-2.41-.27h0A1.64,1.64,0,0,1,88.26,257.86Z"/><g class="cls-31"><path class="cls-30" d="M89.33,260.08c.15-.35,2.65-1,3.1-1.23a21.59,21.59,0,0,0,7.84-6.53c.48-.65,1.34-1.69.79-2.53s-1.58-.56-2.25-.27a17.75,17.75,0,0,0-5.23,4.17A23.07,23.07,0,0,0,89.33,260.08Z"/></g><path class="cls-16" d="M234,79.48l-40,2.14A4.6,4.6,0,0,0,189.64,86l-1.21,21.35a4.61,4.61,0,0,0,4.34,4.86l5.4.3-.39,7a.42.42,0,0,0,.67.36l9-6.78,20.26,1.15a4.62,4.62,0,0,0,4.73-3.5l6.28-25.46A4.61,4.61,0,0,0,234,79.48Z"/><rect class="cls-11" x="195.86" y="88.28" width="34.01" height="2.84" transform="translate(5.41 -11.89) rotate(3.24)"/><rect class="cls-11" x="195.49" y="94.83" width="34.01" height="2.84" transform="translate(5.78 -11.86) rotate(3.24)"/><rect class="cls-11" x="195.12" y="101.37" width="34.01" height="2.84" transform="translate(6.15 -11.83) rotate(3.24)"/></g></g></g></svg>