<!DOCTYPE svg PUBLIC "-//W3C//DTD SVG 1.1//EN" "http://www.w3.org/Graphics/SVG/1.1/DTD/svg11.dtd">

<!-- Uploaded to: SVG Repo, www.svgrepo.com, Transformed by: SVG Repo Mixer Tools -->
<svg width="64px" height="64px" viewBox="0 0 24 24" fill="none" xmlns="http://www.w3.org/2000/svg">
strokeLinecap
<g id="SVGRepo_bgCarrier" strokeWidth="0"/>strokeLinecapstrokeLinecapstrokeLinecapstrokeLinecap

<g id="SVGRepo_tracerCarrier" stroke-linecap="round" strokeLinejoin="round"/>

<g id="SVGRepo_iconCarrier"> <path opacity="0.1" d="M21 12C21 16.9706 16.9706 21 12 21C7.02944 21 3 16.9706 3 12C3 7.02944 7.02944 3 12 3C16.9706 3 21 7.02944 21 12Z" fill="#ACAFB9"/> <path d="M21 12C21 16.9706 16.9706 21 12 21C7.02944 21 3 16.9706 3 12C3 7.02944 7.02944 3 12 3C16.9706 3 21 7.02944 21 12Z" stroke="#ACAFB9" strokeWidth="2"/> <path d="M9 7L11.8832 11.3248V11.3248C11.9388 11.4081 12.0612 11.4081 12.1168 11.3248V11.3248L15 7" stroke="#ACAFB9" strokeWidth="2" stroke-linecap="round" strokeLinejoin="round"/> <path d="M12 11.5V17" stroke="#ACAFB9" strokeWidth="2" stroke-linecap="round" strokeLinejoin="round"/> <path d="M9 12H15" stroke="#ACAFB9" strokeWidth="2" stroke-linecap="round" strokeLinejoin="round"/> <path d="M9 15H15" stroke="#ACAFB9" strokeWidth="2" stroke-linecap="round" strokeLinejoin="round"/> </g>

</svg>